<?xml version="1.0" encoding="UTF-8" standalone="no"?>
<svg
   xmlns:dc="http://purl.org/dc/elements/1.1/"
   xmlns:cc="http://creativecommons.org/ns#"
   xmlns:rdf="http://www.w3.org/1999/02/22-rdf-syntax-ns#"
   xmlns:svg="http://www.w3.org/2000/svg"
   xmlns="http://www.w3.org/2000/svg"
   version="1.1"
   id="svg2"
   viewBox="0 0 25 25"
   height="25"
   width="25">
  <defs
     id="defs4" />
  <metadata
     id="metadata7">
    <rdf:RDF>
      <cc:Work
         rdf:about="">
        <dc:format>image/svg+xml</dc:format>
        <dc:type
           rdf:resource="http://purl.org/dc/dcmitype/StillImage" />
        <dc:title></dc:title>
      </cc:Work>
    </rdf:RDF>
  </metadata>
  <g
     transform="translate(0,-1027.3622)"
     id="layer1">
    <path
       id="path3336"
       d="m 4.952381,1039.6189 c 0.1699321,0.078 0.3565568,0.1195 0.543554,0.1208 0.080556,5e-4 0.1612649,-0.01 0.2415795,0 0.122144,0.01 0.2403523,0.049 0.3623694,0.06 0.1003015,0.01 0.2012724,-0 0.3019744,0 0.1823805,0 0.3620056,0.042 0.543554,0.06 0.1404848,0.014 0.2822794,0.014 0.4227642,0 0.2321507,0.082 0.4785993,0.1229 0.7247387,0.1208 0.1410495,-0 0.2826683,-0.016 0.4227642,0 0.1216828,0.014 0.2401025,0.052 0.3623694,0.06 0.1206581,0.01 0.242299,-0.014 0.3623693,0 0.101998,0.012 0.1997796,0.05 0.3019745,0.06 0.1002052,0.01 0.2012682,0 0.3019744,0 l 0.301974,0 c 0.08056,0 0.161361,-0.01 0.24158,0 0.102303,0.01 0.199671,0.051 0.301974,0.06 0.08022,0.01 0.161021,0 0.24158,0 l 0.362369,0 0.301975,0 0.181184,0 c 0.004,0.014 0.01172,0.028 0.02225,0.038 0.01053,0.011 0.02381,0.018 0.03814,0.022 0.0195,0.01 0.04011,0 0.06026,0 0.02015,-0 0.04033,-0 0.06053,-0 l 0.362369,0 0.12079,0 c 0.0101,0 0.0202,-5e-4 0.03028,-0 0.01007,-8e-4 0.02043,-0 0.03011,0 0.0069,0 0.01315,0.01 0.01855,0.011 0.0054,0 0.01,0.01 0.01429,0.016 0.0086,0.012 0.01626,0.024 0.02756,0.033 0.0082,0.01 0.0181,0.011 0.02835,0.013 0.01025,0 0.02087,0 0.03132,0 0.02091,-0 0.04099,-0.01 0.06112,-0.015 0.137002,-0.041 0.285762,-0.041 0.422764,0 0.01262,0.026 0.03429,0.047 0.06039,0.06 0.02293,0.011 0.04866,0.015 0.07406,0.015 0.0254,4e-4 0.05073,-0 0.07595,-0.01 0.05044,-0.01 0.101158,-0.01 0.151966,-0.01 l 0.543554,0 0.603949,0 c 0.04099,0 0.08185,0 0.122292,0.011 0.02022,0 0.04061,0.01 0.0611,0.01 0.02049,-5e-4 0.04145,-0.01 0.05819,-0.017 0.01163,-0.01 0.02066,-0.02 0.02971,-0.031 0.0091,-0.011 0.01851,-0.022 0.03068,-0.029 0.01265,-0.01 0.02768,-0.011 0.04249,-0.011 0.01481,2e-4 0.02943,0 0.04321,0.01 0.02757,0.011 0.05175,0.029 0.07779,0.043 0.01302,0.01 0.0266,0.013 0.04092,0.017 0.01432,0 0.02943,0.01 0.04401,0 0.01457,-0 0.02858,-0.01 0.03872,-0.02 0.01013,-0.011 0.0161,-0.026 0.01484,-0.04 -8.9e-4,-0.011 -0.0052,-0.02 -0.0071,-0.031 -9.59e-4,-0.01 -0.0013,-0.011 -2.9e-4,-0.016 0.001,-0.01 0.0035,-0.01 0.0074,-0.014 0.0039,-0 0.0091,-0.01 0.01427,-0.01 0.0052,-5e-4 0.01038,3e-4 0.01546,0 0.0051,0 0.01007,0 0.01517,0 0.0051,9e-4 0.01036,0 0.01549,6e-4 0.0072,-0 0.01375,-0 0.01917,-0.01 0.0054,-0 0.0098,-0.011 0.01381,-0.017 0.004,-0.01 0.0077,-0.012 0.01202,-0.018 0.0043,-0.01 0.0093,-0.011 0.01539,-0.015 0.007,-0 0.01525,-0.01 0.02356,-0.01 0.0083,-6e-4 0.01669,5e-4 0.02473,0 0.01609,0 0.03076,0.013 0.04588,0.02 0.01512,0.01 0.03143,0.013 0.04806,0.012 0.0083,-6e-4 0.01658,-0 0.02359,-0.01 0.007,-0 0.01269,-0.011 0.01536,-0.019 0.0032,-0.01 0.002,-0.02 4.88e-4,-0.03 -0.0015,-0.01 -0.0031,-0.02 -4.88e-4,-0.03 0.0022,-0.01 0.0072,-0.015 0.01375,-0.021 0.0065,-0.01 0.01449,-0.01 0.02272,-0.01 0.01646,-0 0.03348,8e-4 0.04914,0.01 0.01565,0.01 0.03049,0.014 0.04628,0.019 0.01579,0.01 0.0331,0.01 0.04929,0 0.01412,-0 0.02636,-0.013 0.03612,-0.024 0.0098,-0.011 0.01728,-0.024 0.0247,-0.036 0.0074,-0.013 0.01483,-0.025 0.02441,-0.036 0.0096,-0.011 0.02157,-0.02 0.03556,-0.025 0.0098,-0 0.02023,-0 0.03042,-0 0.01018,10e-4 0.02021,0 0.03025,0.01 0.01004,0 0.02019,0 0.03042,0 0.01023,0 0.02062,-0 0.0297,-0.01 0.0127,-0.01 0.02184,-0.018 0.03046,-0.03 0.0086,-0.011 0.0175,-0.023 0.02994,-0.03 0.0089,-0.01 0.01917,-0.01 0.02939,-0.01 0.01022,-5e-4 0.02045,7e-4 0.03054,0 0.02018,0 0.04065,0.01 0.06085,0.01 0.01494,-0 0.02906,-0.01 0.0398,-0.02 0.01074,-0.011 0.01805,-0.025 0.02059,-0.04 l 0.06039,0 0.06039,0 c 0.05081,0 0.101522,0 0.151967,0.01 0.02522,0 0.05055,0.01 0.07595,0.01 0.0254,-4e-4 0.05113,-0 0.07406,-0.015 0.0261,-0.013 0.04777,-0.034 0.06039,-0.06 l 0.06039,0 0.06039,0 0.301975,0 1.026713,0 0.301974,0 c 0.01013,0 0.02024,6e-4 0.03032,0 0.01008,9e-4 0.02058,0 0.03007,-0 0.0061,-0 0.01142,-0.01 0.01512,-0.012 0.0037,-0.01 0.0057,-0.012 0.0057,-0.018 0,-0.01 -0.002,-0.013 -0.0057,-0.018 -0.0037,-0.01 -0.009,-0.01 -0.01512,-0.012 l 0.301975,0 c 0.0096,-0.022 0.02811,-0.04 0.05012,-0.049 0.02201,-0.01 0.04666,-0.011 0.07067,-0.011 l 0.24158,0 c 0.01026,0 0.02049,0 0.0306,0 0.0051,9e-4 0.01016,0 0.01529,0 0.0051,-10e-5 0.01039,-0 0.0145,-0 0.0043,-0 0.0069,-0.01 0.008,-0.013 0.0011,-0.01 6.95e-4,-0.011 -3.65e-4,-0.016 -0.0021,-0.01 -0.0069,-0.02 -0.0077,-0.031 -9.14e-4,-0.012 0.0033,-0.024 0.01076,-0.033 0.0075,-0.01 0.01797,-0.016 0.02931,-0.019 0.01133,-0 0.02346,-0 0.03521,-0 0.01175,0 0.02317,0.01 0.0341,0.01 0.02187,0.01 0.04187,0.022 0.06337,0.032 0.0215,0.01 0.04551,0.017 0.06883,0.013 0.01483,-0 0.02879,-0.01 0.03949,-0.021 0.0107,-0.011 0.01808,-0.025 0.0209,-0.039 l 0.06039,0 0.06039,0 0.362369,0 0.422765,0 0.06039,0 c 0.01029,0 0.02053,0 0.03065,0 0.0051,9e-4 0.01017,0 0.01531,0 0.0051,-10e-5 0.01042,-0 0.01443,-0 0.0041,-0 0.0065,-0.01 0.0073,-0.014 8.05e-4,-0.01 1.33e-4,-0.011 -0.0011,-0.016 -0.0012,-0.01 -0.0029,-0.01 -0.0043,-0.015 -0.0013,-0.01 -0.0023,-0.01 -0.002,-0.016 5.89e-4,-0.01 0.0048,-0.017 0.01111,-0.023 0.0063,-0.01 0.01442,-0.01 0.02291,-0.011 0.01696,-0 0.03447,0 0.05015,0.01 0.01568,0.01 0.03036,0.017 0.0465,0.023 0.0081,0 0.01651,0.01 0.02512,0.01 0.0086,6e-4 0.01743,-5e-4 0.0254,-0 0.01322,-0.01 0.02315,-0.017 0.03189,-0.028 0.0087,-0.011 0.01699,-0.024 0.0285,-0.032 0.01354,-0.01 0.03058,-0.014 0.04738,-0.016 0.0168,-0 0.0337,-2e-4 0.05056,-4e-4 0.01686,-10e-5 0.03405,-0 0.04951,-0.01 0.0077,-0 0.01495,-0.01 0.02088,-0.014 0.0059,-0.01 0.01053,-0.013 0.01286,-0.022 0.0028,-0.01 0.0023,-0.02 0.0013,-0.03 -9.71e-4,-0.01 -0.0024,-0.02 -0.0013,-0.03 0.0016,-0.015 0.0088,-0.029 0.01983,-0.039 0.01102,-0.01 0.02576,-0.016 0.04057,-0.016 0.0148,0 0.02954,0.01 0.04056,0.016 0.01102,0.01 0.01823,0.024 0.01983,0.039 l 0.12079,-0.06 c -0.0056,-0 -0.01044,-0.01 -0.01375,-0.012 -0.0033,-0.01 -0.0051,-0.012 -0.0051,-0.018 0,-0.01 0.0018,-0.012 0.0051,-0.018 0.0033,-0.01 0.0081,-0.01 0.01375,-0.012 0.0092,-0 0.01988,-0 0.03,-0 0.01013,0 0.02019,0 0.03039,0 0.01564,-4e-4 0.03105,-0.01 0.04215,-0.018 0.0111,-0.011 0.01777,-0.026 0.01825,-0.042 3.72e-4,0.01 0.0038,0.015 0.0093,0.02 0.0056,0.01 0.01318,0.01 0.02085,0.01 0.0077,0 0.0153,-0 0.02085,-0.01 0.0056,-0.01 0.009,-0.013 0.0093,-0.02 2.58e-4,-0.01 -8.9e-4,-0.011 -0.0024,-0.016 -0.0015,-0.01 -0.0034,-0.01 -0.0047,-0.015 -0.0013,-0.01 -0.002,-0.011 -0.001,-0.016 9.51e-4,-0.01 0.0037,-0.01 0.0081,-0.013 0.0044,-0 0.01007,-0 0.01531,-0 0.0052,7e-4 0.01023,0 0.01521,0 0.005,0 0.01012,0 0.01542,0 0.0026,10e-5 0.0053,-3e-4 0.0078,-0 0.0025,-9e-4 0.0048,-0 0.0066,-0 0.0018,-0 0.003,-0 0.0037,-0.01 6.69e-4,-0 7.99e-4,-0.01 5.6e-4,-0.01 -4.79e-4,-0.01 -0.0024,-0.01 -0.0043,-0.015 -0.0019,-0 -0.0038,-0.01 -0.0043,-0.015 -2.29e-4,-0 -8.6e-5,-0.01 6e-4,-0.01 6.85e-4,-0 0.0019,-0 0.0037,-0.01 0.0018,-0 0.0042,-0 0.0067,-0 0.0025,-9e-4 0.0052,-0 0.0078,-0 0.0053,2e-4 0.01042,0 0.0154,0 0.005,0 0.01,0 0.01522,0 0.0026,3e-4 0.0053,4e-4 0.0079,-10e-5 0.0026,-4e-4 0.0052,-0 0.0073,-0 0.0022,-0 0.0039,-0 0.0052,-0.01 0.0013,-0 0.0021,-0 0.0025,-0.01 7.84e-4,-0.01 -4.7e-5,-0.011 -0.0014,-0.016 -0.0014,-0.01 -0.0033,-0.01 -0.0047,-0.015 -0.0014,-0.01 -0.0023,-0.01 -0.0016,-0.016 5.83e-4,-0 0.0023,-0.01 0.0049,-0.013 0.0026,-0 0.006,-0.01 0.0099,-0.01 0.0078,-0 0.01722,-0.01 0.02625,-0.01 0.009,9e-4 0.0177,0 0.02568,0.01 0.008,0 0.01532,0.01 0.02258,0.015 0.01453,0.011 0.0296,0.022 0.04748,0.026 0.0089,0 0.01843,9e-4 0.02669,-0 0.0083,-0 0.01514,-0.011 0.01765,-0.02 0.0014,-0 0.0014,-0.01 8.3e-4,-0.015 -6.04e-4,-0.01 -0.0018,-0.01 -0.0029,-0.015 -0.001,-0 -0.0019,-0.01 -0.0018,-0.015 8.9e-5,-0.01 0.0012,-0.01 0.0039,-0.015 0.0029,-0 0.0076,-0.01 0.01284,-0.01 0.0052,-0 0.01093,-0 0.01647,-0 0.01108,0 0.02122,0.01 0.03104,0.012 0.0098,0.01 0.01995,0.011 0.03102,0.012 0.0055,7e-4 0.01125,2e-4 0.01648,-0 0.0052,-0 0.01,-0.01 0.01293,-0.01 0.0027,-0 0.0039,-0.01 0.004,-0.015 1.37e-4,-0.01 -7.01e-4,-0.01 -0.0017,-0.015 -0.001,-0 -0.0022,-0.01 -0.0029,-0.015 -6.42e-4,-0.01 -6.93e-4,-0.01 6e-4,-0.015 0.0015,-0.01 0.0049,-0.011 0.0093,-0.015 0.0044,-0 0.0097,-0.01 0.01534,-0.01 0.01128,-0 0.02358,-0 0.03564,-0.01 0.01206,-5e-4 0.02435,-0 0.03566,-0.01 0.0057,-0 0.01101,-0.01 0.01541,-0.01 0.0044,-0 0.0078,-0.01 0.0094,-0.015 0.0013,-0 0.0014,-0.01 7.85e-4,-0.015 -5.82e-4,-0.01 -0.0018,-0.01 -0.0028,-0.015 -0.001,-0 -0.0018,-0.01 -0.0018,-0.015 8.6e-5,-0.01 0.0011,-0.01 0.0037,-0.015 0.0028,-0 0.0072,-0.01 0.01227,-0.011 0.005,-0 0.01061,-0 0.01609,-0 0.01096,5e-4 0.0213,0 0.03119,0.01 0.0099,0 0.01984,0.01 0.03066,0.012 0.0054,9e-4 0.01101,9e-4 0.01635,-4e-4 0.0053,-0 0.01041,-0 0.01422,-0.01 0.0038,-0 0.0063,-0.01 0.0074,-0.015 0.0011,-0.01 8.11e-4,-0.011 -2.95e-4,-0.016 -0.0022,-0.011 -0.0077,-0.021 -0.01261,-0.031 -0.0049,-0.01 -0.0095,-0.02 -0.0096,-0.031 -7.5e-5,-0.01 9.93e-4,-0.011 0.0035,-0.016 0.0025,-0 0.0066,-0.01 0.01164,-0.011 0.0047,-0 0.01002,-0 0.01516,-0 0.0051,5e-4 0.01015,0 0.01516,0 0.005,0 0.01007,0 0.01523,0 0.0052,10e-5 0.01046,-8e-4 0.01485,-0 0.0047,-0 0.008,-0.01 0.0097,-0.013 0.0017,-0.01 0.0019,-0.011 0.0011,-0.016 -0.0016,-0.011 -0.0068,-0.021 -0.01087,-0.031 -0.0098,-0.025 -0.01232,-0.054 -0.0018,-0.078 0.0052,-0.012 0.01366,-0.023 0.02456,-0.031 0.0109,-0.01 0.02431,-0.012 0.03767,-0.011 0.01035,4e-4 0.02035,0 0.03059,0.01 0.0051,8e-4 0.01035,0 0.01547,4e-4 0.0051,-7e-4 0.01018,-0 0.01432,-0.01 0.0044,-0 0.0076,-0.01 0.0095,-0.013 0.0019,-0.01 0.0024,-0.011 0.0019,-0.016 -9.84e-4,-0.011 -0.0059,-0.021 -0.0114,-0.031 -0.01221,-0.021 -0.0281,-0.041 -0.03261,-0.065 -0.0023,-0.012 -0.0014,-0.025 0.0042,-0.035 0.0028,-0.01 0.0067,-0.01 0.01163,-0.014 0.0049,-0 0.01072,-0.01 0.01677,-0.01 0.0052,-5e-4 0.01049,3e-4 0.0156,0 0.0051,0 0.01011,0 0.01523,0 0.0051,0 0.01041,0 0.01562,0 0.0052,-6e-4 0.01035,-0 0.01394,-0.01 0.0035,-0 0.0054,-0.01 0.0058,-0.014 4.34e-4,-0.01 -4.1e-4,-0.01 -0.0016,-0.015 -0.0012,-0 -0.0027,-0.01 -0.0037,-0.015 -0.001,-0.01 -0.0015,-0.01 -4.44e-4,-0.015 0.0014,-0.01 0.0057,-0.014 0.01095,-0.019 0.0053,-0.01 0.01152,-0.01 0.0178,-0.013 0.0063,-0 0.01267,-0.01 0.01835,-0.012 0.0057,-0 0.01067,-0.01 0.01329,-0.017 0.0036,-0.01 0.0024,-0.02 8.54e-4,-0.03 -0.0016,-0.01 -0.0034,-0.02 -8.54e-4,-0.03 0.0018,-0.01 0.0058,-0.013 0.01071,-0.019 0.0049,-0.01 0.01071,-0.01 0.01665,-0.014 0.01189,-0.01 0.02486,-0.016 0.03304,-0.028 0.0058,-0.01 0.0088,-0.019 0.0097,-0.029 8.84e-4,-0.01 -2.21e-4,-0.021 -0.002,-0.031 -0.0035,-0.02 -0.0096,-0.041 -0.0077,-0.061 0.0021,-0.023 0.01376,-0.043 0.02632,-0.062 0.01256,-0.019 0.02646,-0.037 0.03407,-0.059 0.01021,-0.029 0.0083,-0.06 0.0046,-0.09 -0.0036,-0.03 -0.0088,-0.061 -0.0046,-0.091 0.0044,-0.032 0.01883,-0.061 0.0324,-0.09 0.01357,-0.029 0.02665,-0.059 0.02799,-0.091 8.37e-4,-0.02 -0.003,-0.04 0,-0.06 0.0027,-0.018 0.01117,-0.035 0.02193,-0.05 0.01076,-0.015 0.02384,-0.028 0.03696,-0.041 0.01312,-0.013 0.02639,-0.026 0.03761,-0.041 0.01122,-0.015 0.02041,-0.031 0.02429,-0.049 0.0065,-0.03 -0.0023,-0.061 -0.0082,-0.091 -0.003,-0.015 -0.0053,-0.031 -0.0046,-0.046 6.66e-4,-0.015 0.0044,-0.031 0.01283,-0.044 0.0078,-0.012 0.019,-0.021 0.03009,-0.03 0.01109,-0.01 0.02239,-0.018 0.0303,-0.03 0.01155,-0.017 0.01477,-0.039 0.01319,-0.06 -0.0016,-0.021 -0.0076,-0.041 -0.01319,-0.061 -0.0028,-0.01 -0.0055,-0.02 -0.0061,-0.03 -6.42e-4,-0.01 8.95e-4,-0.021 0.0061,-0.03 0.0037,-0.01 0.009,-0.011 0.01482,-0.016 0.0058,-0 0.01208,-0.01 0.01819,-0.012 0.0061,-0 0.01209,-0.01 0.01707,-0.014 0.005,-0.01 0.0089,-0.012 0.01032,-0.019 9.81e-4,-0.01 6.6e-4,-0.01 -1.7e-4,-0.015 -8.3e-4,-0.01 -0.0022,-0.01 -0.0032,-0.015 -0.001,-0 -0.0018,-0.01 -0.0015,-0.015 3.22e-4,-0.01 0.0018,-0.01 0.0049,-0.014 0.0032,-0 0.0081,-0.01 0.01332,-0.01 0.0052,-0 0.01073,-0 0.01608,-7e-4 0.01068,0 0.0206,0.01 0.03099,0.01 0.02794,0.01 0.0595,0 0.08271,-0.015 0.02321,-0.018 0.03754,-0.046 0.03754,-0.075 0,-0.029 -0.01432,-0.058 -0.03754,-0.075 -0.02321,-0.018 -0.05477,-0.023 -0.08271,-0.015 7.8e-4,-0.047 0.02363,-0.092 0.06039,-0.1208 0.02368,-0.018 0.05215,-0.03 0.07664,-0.047 0.01225,-0.01 0.02355,-0.019 0.03178,-0.031 0.0082,-0.013 0.01324,-0.027 0.01237,-0.042 -6.67e-4,-0.011 -0.0046,-0.022 -0.0092,-0.033 -0.0045,-0.011 -0.0097,-0.021 -0.01294,-0.032 -0.0032,-0.011 -0.0045,-0.023 -0.0011,-0.034 0.0017,-0.01 0.0046,-0.011 0.0085,-0.015 0.004,-0 0.0091,-0.01 0.01469,-0.01 0.0051,-0 0.01046,-6e-4 0.01558,5e-4 0.0051,0 0.01011,0 0.01519,0 0.0051,0 0.01032,0 0.01553,0 0.0052,-4e-4 0.01043,-0 0.01409,-0.01 0.0036,-0 0.0055,-0.01 0.0059,-0.014 4.07e-4,-0.01 -5.12e-4,-0.01 -0.0018,-0.015 -0.0013,-0.01 -0.0029,-0.01 -0.0039,-0.015 -0.001,-0.01 -0.0014,-0.01 -2.34e-4,-0.015 0.0017,-0.01 0.0064,-0.013 0.01198,-0.018 0.0056,-0 0.01217,-0.01 0.01864,-0.012 0.0065,-0 0.01298,-0.01 0.01848,-0.012 0.0055,-0 0.01,-0.011 0.01129,-0.018 9.38e-4,-0.01 1.95e-4,-0.011 -0.0011,-0.016 -0.0013,-0.01 -0.0032,-0.01 -0.0046,-0.015 -0.0014,-0.01 -0.0023,-0.01 -0.0016,-0.016 3.39e-4,-0 0.0011,-0.01 0.0023,-0.01 0.0012,-0 0.0029,-0 0.0051,-0.01 0.0021,-0 0.0047,-0 0.0073,-0 0.0026,-5e-4 0.0053,-5e-4 0.0079,-2e-4 0.0053,7e-4 0.01026,0 0.01523,0 0.005,0 0.01008,0 0.01538,0 0.0026,2e-4 0.0053,-10e-5 0.0079,-9e-4 0.0025,-8e-4 0.0049,-0 0.0067,-0 0.0018,-0 0.0031,-0 0.0039,-0.01 7.5e-4,-0 9.67e-4,-0.01 8.09e-4,-0.01 -3.17e-4,-0.01 -0.0021,-0.01 -0.0039,-0.015 -0.0018,-0 -0.0037,-0.01 -0.0043,-0.015 -2.93e-4,-0 -2.48e-4,-0.01 3.05e-4,-0.01 5.53e-4,-0 0.0016,-0 0.0033,-0.01 0.0016,-0 0.0038,-0 0.0062,-0 0.0024,-0 0.005,-0 0.0077,-0 0.0053,-4e-4 0.01055,8e-4 0.01561,0 0.0051,0 0.01002,0 0.01519,0 0.0052,0 0.01067,0 0.01569,-2e-4 0.0053,-0 0.0098,-0.01 0.01265,-0.011 0.0028,-0 0.0041,-0.011 0.0041,-0.016 4e-6,-0.011 -0.0048,-0.022 -0.01014,-0.032 -0.0053,-0.01 -0.01124,-0.02 -0.01374,-0.031 -0.0013,-0.01 -0.0016,-0.011 -5.41e-4,-0.017 0.0011,-0.01 0.0036,-0.011 0.0077,-0.015 0.0038,-0 0.0087,-0.01 0.01389,-0.01 0.0052,-0 0.01052,-0 0.01576,-4e-4 0.01047,0 0.02042,0.01 0.03074,0.01 0.02311,0.01 0.04773,0 0.06928,-0.01 0.02155,-0.01 0.04012,-0.025 0.05496,-0.044 0.02968,-0.037 0.04426,-0.083 0.05695,-0.129 0.01383,-0.05 0.02622,-0.1002 0.0289,-0.1518 0.0027,-0.052 -0.0048,-0.1045 -0.0289,-0.1502 -0.01059,-0.02 -0.02418,-0.038 -0.03595,-0.058 -0.01177,-0.019 -0.02189,-0.04 -0.02444,-0.063 -0.0023,-0.02 0.0015,-0.04 0,-0.06 -0.0022,-0.029 -0.01565,-0.057 -0.03426,-0.08 -0.01861,-0.023 -0.04216,-0.041 -0.0667,-0.057 -0.04907,-0.032 -0.104291,-0.059 -0.140619,-0.1048 -0.02833,-0.036 -0.04256,-0.081 -0.06768,-0.1195 -0.01256,-0.019 -0.02812,-0.037 -0.04767,-0.049 -0.01955,-0.012 -0.04345,-0.018 -0.06583,-0.013 -0.01046,0 -0.02036,0.01 -0.03094,0.01 -0.0053,9e-4 -0.01075,10e-4 -0.01595,-3e-4 -0.0052,-0 -0.01012,-0 -0.0135,-0.01 -0.0032,-0 -0.0049,-0.01 -0.0054,-0.014 -4.8e-4,-0.01 1.72e-4,-0.01 0.0012,-0.015 0.002,-0.01 0.0055,-0.02 0.0042,-0.03 -8.79e-4,-0.01 -0.0041,-0.014 -0.0086,-0.02 -0.0044,-0.01 -0.01003,-0.011 -0.01595,-0.015 -0.01185,-0.01 -0.02523,-0.015 -0.03587,-0.025 -0.01653,-0.016 -0.02475,-0.038 -0.03182,-0.059 -0.0071,-0.022 -0.01388,-0.044 -0.02857,-0.061 -0.01469,-0.017 -0.03587,-0.028 -0.05717,-0.036 -0.0213,-0.01 -0.04347,-0.014 -0.06362,-0.024 -0.02542,-0.013 -0.04666,-0.033 -0.0656,-0.055 -0.01895,-0.022 -0.03596,-0.045 -0.05519,-0.066 -0.05742,-0.063 -0.134082,-0.1097 -0.181185,-0.1812 -0.02018,-0.031 -0.03416,-0.065 -0.05141,-0.097 -0.01725,-0.032 -0.03867,-0.064 -0.06938,-0.084 -0.0189,-0.012 -0.04047,-0.02 -0.06154,-0.028 -0.02107,-0.01 -0.04225,-0.017 -0.05925,-0.032 -0.02211,-0.019 -0.03523,-0.047 -0.05179,-0.071 -0.0083,-0.012 -0.01761,-0.024 -0.02909,-0.033 -0.01148,-0.01 -0.02529,-0.016 -0.03991,-0.017 -0.01009,-9e-4 -0.02021,7e-4 -0.03029,0 -0.01008,10e-4 -0.0205,0 -0.0301,-0 -0.01108,-0 -0.02022,-0.012 -0.02656,-0.022 -0.0063,-0.01 -0.01011,-0.021 -0.01289,-0.033 -0.0028,-0.011 -0.0046,-0.023 -0.0075,-0.034 -0.0029,-0.011 -0.0068,-0.023 -0.01342,-0.032 -0.0064,-0.01 -0.01524,-0.017 -0.02494,-0.023 -0.0097,-0.01 -0.02031,-0.01 -0.03111,-0.014 -0.0216,-0.01 -0.04426,-0.012 -0.06474,-0.023 -0.02585,-0.013 -0.04738,-0.034 -0.0604,-0.06 -0.0079,0.01 -0.01901,0.013 -0.03019,0.013 -0.01119,0 -0.02231,-0 -0.03019,-0.013 -0.0078,-0.01 -0.01237,-0.019 -0.01237,-0.03 0,-0.011 0.0045,-0.022 0.01237,-0.03 -0.0012,0.01 -0.0049,0.014 -0.01037,0.018 -0.0055,0 -0.01263,0.01 -0.01982,0.01 -0.0072,0 -0.01435,-0 -0.01982,-0.01 -0.0055,-0 -0.0092,-0.011 -0.01037,-0.018 -8.26e-4,-0.01 -3.54e-4,-0.01 5.92e-4,-0.015 9.45e-4,-0 0.0024,-0.01 0.0034,-0.015 0.0011,-0.01 0.0018,-0.01 0.0014,-0.015 -4.3e-4,-0.01 -0.0021,-0.01 -0.0054,-0.014 -0.0034,-0 -0.0084,-0.01 -0.0136,-0.01 -0.0052,-0 -0.01062,-8e-4 -0.01586,10e-5 -0.01047,0 -0.02039,0.01 -0.03094,0.01 -0.01623,0 -0.0333,-0 -0.04491,-0.015 -0.01161,-0.011 -0.01749,-0.029 -0.01548,-0.045 -0.01987,0 -0.04052,0 -0.06039,0 -0.0296,-0.01 -0.05734,-0.021 -0.07868,-0.042 -0.02134,-0.021 -0.03619,-0.049 -0.04211,-0.079 -0.04839,-0.055 -0.111592,-0.097 -0.181185,-0.1208 -0.06048,-0.02 -0.126406,-0.027 -0.181184,-0.06 -0.03149,-0.019 -0.05758,-0.045 -0.08557,-0.069 -0.028,-0.024 -0.05949,-0.045 -0.09561,-0.052 -0.0345,-0.01 -0.07002,0 -0.104928,-7e-4 -0.01745,-0 -0.03501,-0.01 -0.04944,-0.016 -0.0072,-0.01 -0.01358,-0.011 -0.01831,-0.019 -0.0047,-0.01 -0.0078,-0.016 -0.0085,-0.025 -8.1e-4,-0.01 0.0015,-0.02 0.0029,-0.03 6.81e-4,-0.01 0.0011,-0.01 8.02e-4,-0.015 -3.19e-4,-0 -0.0014,-0.01 -0.0037,-0.015 -0.0039,-0.01 -0.01119,-0.014 -0.01939,-0.017 -0.0082,-0 -0.01724,-0 -0.02583,-0 -0.01718,0 -0.03214,0.013 -0.04678,0.023 -0.01465,0.01 -0.03027,0.019 -0.04768,0.02 -0.0087,7e-4 -0.0177,-8e-4 -0.02536,-0 -0.0077,-0 -0.01386,-0.011 -0.01615,-0.02 -0.0013,-0 -0.0013,-0.01 -7.23e-4,-0.015 6.06e-4,-0 0.0018,-0.01 0.0028,-0.015 0.001,-0.01 0.0019,-0.01 0.0018,-0.015 -1.05e-4,-0.01 -0.0012,-0.01 -0.0038,-0.015 -0.0029,-0 -0.0076,-0.01 -0.01281,-0.011 -0.0052,-0 -0.01098,-0 -0.01656,-0 -0.01116,0 -0.02137,0.01 -0.03101,0.012 -0.02026,0.012 -0.04032,0.026 -0.06361,0.03 -0.01165,0 -0.02394,9e-4 -0.03461,-0 -0.0053,-0 -0.01022,-0.01 -0.01415,-0.01 -0.0039,-0 -0.0069,-0.01 -0.0084,-0.015 -0.0026,-0.01 -8.94e-4,-0.02 6.17e-4,-0.03 0.0015,-0.01 0.0028,-0.021 -6.17e-4,-0.03 -0.0022,-0.01 -0.0064,-0.012 -0.01172,-0.015 -0.0054,-0 -0.01191,-0.01 -0.01847,-0.01 -0.0066,0 -0.01311,0 -0.01847,0.01 -0.0054,0 -0.0095,0.01 -0.01172,0.015 l -0.12079,-0.06 c -0.0018,0.01 -0.0058,0.013 -0.01119,0.017 -0.0054,0 -0.0122,0.01 -0.01901,0.01 -0.0068,0 -0.0136,-0 -0.01901,-0.01 -0.0054,-0 -0.0094,-0.01 -0.01119,-0.017 -0.0027,-0.01 -4.37e-4,-0.02 0.0013,-0.03 8.9e-4,-0 0.0017,-0.01 0.0017,-0.015 -7e-6,-0.01 -8.27e-4,-0.01 -0.003,-0.015 -0.0023,-0 -0.0062,-0.01 -0.01076,-0.012 -0.0046,-0 -0.0098,-0 -0.01522,-0.01 -0.01076,-0 -0.02173,8e-4 -0.03203,0 -0.0103,0 -0.02021,0.01 -0.03062,0.011 -0.01042,0 -0.02163,0 -0.03216,0 -0.007,-0 -0.01343,-0.01 -0.01903,-0.01 -0.0056,-0 -0.01041,-0.01 -0.01482,-0.016 -0.0088,-0.011 -0.01621,-0.024 -0.02654,-0.034 -0.01619,-0.016 -0.03817,-0.024 -0.05961,-0.031 -0.02144,-0.01 -0.0436,-0.014 -0.06118,-0.029 -0.01107,-0.01 -0.01982,-0.02 -0.02895,-0.031 -0.0091,-0.011 -0.01898,-0.022 -0.03144,-0.029 -0.01793,-0.01 -0.03951,-0.011 -0.05991,-0.01 -0.0204,0 -0.04043,0.01 -0.06088,0.01 -0.039,0 -0.07892,-0.01 -0.111462,-0.029 -0.03255,-0.022 -0.05751,-0.054 -0.06972,-0.092 -0.0083,0.01 -0.01923,0.011 -0.03019,0.011 -0.01097,0 -0.02189,-0 -0.03019,-0.011 -0.0088,-0.01 -0.01451,-0.018 -0.0181,-0.03 -0.0036,-0.011 -0.0053,-0.023 -0.0074,-0.034 -0.0022,-0.012 -0.0049,-0.023 -0.01024,-0.033 -0.0054,-0.01 -0.01376,-0.02 -0.02461,-0.024 -0.0094,-0 -0.01996,-0 -0.03006,-0 -0.0101,0 -0.02018,0 -0.03033,0 -0.01552,-8e-4 -0.03066,-0.01 -0.04168,-0.018 -0.01102,-0.011 -0.01782,-0.026 -0.01871,-0.042 -0.0012,0.01 -0.0049,0.014 -0.01037,0.018 -0.0055,0 -0.01263,0.01 -0.01982,0.01 -0.0072,0 -0.01435,-0 -0.01982,-0.01 -0.0055,-0 -0.0092,-0.011 -0.01037,-0.018 -8.26e-4,-0.01 -3.54e-4,-0.01 5.92e-4,-0.015 9.45e-4,-0 0.0024,-0.01 0.0034,-0.015 0.0011,-0.01 0.0018,-0.01 0.0014,-0.015 -4.3e-4,-0.01 -0.0021,-0.01 -0.0054,-0.014 -0.0034,-0 -0.0084,-0.01 -0.0136,-0.01 -0.0052,-0 -0.01062,-8e-4 -0.01586,10e-5 -0.01047,0 -0.02039,0.01 -0.03094,0.01 -0.01623,0 -0.0333,-0 -0.04491,-0.015 -0.01161,-0.011 -0.01749,-0.029 -0.01548,-0.045 -0.01943,0.01 -0.04096,0.01 -0.06039,0 -0.0279,-0.01 -0.05093,-0.032 -0.06039,-0.06 -0.01892,0.01 -0.04147,0.01 -0.06039,0 -0.01321,-0.01 -0.02444,-0.016 -0.03391,-0.027 -0.0095,-0.011 -0.01735,-0.023 -0.02531,-0.035 -0.008,-0.012 -0.01611,-0.024 -0.02606,-0.035 -0.0099,-0.01 -0.02183,-0.019 -0.03551,-0.024 -0.01917,-0.01 -0.04017,-0 -0.06027,-0 -0.02011,0 -0.04069,0.01 -0.06052,0 -0.01463,-0 -0.02829,-0.011 -0.03892,-0.021 -0.01062,-0.011 -0.01816,-0.024 -0.02147,-0.039 -0.0014,0.01 -0.0052,0.013 -0.01068,0.018 -0.0054,0 -0.01247,0.01 -0.01951,0.01 -0.007,0 -0.01406,-0 -0.01951,-0.01 -0.0054,-0 -0.0093,-0.011 -0.01068,-0.018 -0.002,-0.01 0.001,-0.02 0.003,-0.03 0.001,-0.01 0.0018,-0.01 0.0015,-0.015 -2.71e-4,-0.01 -0.0016,-0.01 -0.0045,-0.014 -0.0032,-0 -0.0082,-0.01 -0.01368,-0.01 -0.0054,-0 -0.01128,-0 -0.01686,-6e-4 -0.01117,0 -0.02109,0.01 -0.03092,0.014 -0.0098,0.01 -0.02025,0.011 -0.03159,0.012 -0.0057,4e-4 -0.01148,-6e-4 -0.01652,-0 -0.005,-0 -0.0093,-0.01 -0.01122,-0.012 -0.0018,-0 -0.0017,-0.01 -6.31e-4,-0.015 0.001,-0.01 0.0029,-0.01 0.0044,-0.015 0.0015,-0 0.0027,-0.01 0.0025,-0.015 -1.46e-4,-0 -6.75e-4,-0.01 -0.0017,-0.01 -0.001,-0 -0.0025,-0 -0.0045,-0.01 -0.002,-0 -0.0044,-0 -0.007,-0 -0.0025,-7e-4 -0.0052,-8e-4 -0.0078,-7e-4 -0.0053,4e-4 -0.01032,0 -0.0153,0 -0.005,0 -0.01,0 -0.01525,0 -0.0026,2e-4 -0.0053,2e-4 -0.0079,-4e-4 -0.0026,-5e-4 -0.0051,-0 -0.0072,-0 -0.0021,-0 -0.0038,-0 -0.005,-0.01 -0.0012,-0 -0.0019,-0 -0.0022,-0.01 -6.45e-4,-0.01 2.73e-4,-0.011 0.0017,-0.016 0.0014,-0.01 0.0032,-0.01 0.0045,-0.015 0.0013,-0.01 0.002,-0.01 0.001,-0.016 -0.001,-0.01 -0.004,-0.011 -0.0081,-0.015 -0.0041,-0 -0.0093,-0.01 -0.01473,-0.01 -0.01094,-0 -0.02275,-0 -0.03355,0 -0.01081,0 -0.02092,0.01 -0.0314,0.013 -0.01049,0 -0.02164,0.01 -0.033,0.01 -0.01474,-5e-4 -0.02867,-0.01 -0.03959,-0.018 -0.01092,-0.01 -0.01917,-0.022 -0.02658,-0.035 -0.0074,-0.013 -0.01413,-0.026 -0.02261,-0.038 -0.0085,-0.012 -0.01892,-0.023 -0.03201,-0.03 -0.01856,-0.01 -0.04183,-0.01 -0.06039,0 l -0.06039,-0.06 c -0.008,0.01 -0.01907,0.012 -0.03019,0.012 -0.01113,0 -0.02219,-0 -0.03019,-0.012 -0.0086,-0.01 -0.01342,-0.02 -0.01608,-0.032 -0.0027,-0.012 -0.0034,-0.024 -0.0051,-0.035 -0.0017,-0.012 -0.0044,-0.024 -0.01074,-0.034 -0.0031,-0.01 -0.0072,-0.01 -0.01202,-0.013 -0.0049,-0 -0.01055,-0.01 -0.0165,-0.01 -0.0052,-6e-4 -0.01049,2e-4 -0.0156,0 -0.0051,0 -0.01011,0 -0.01523,0 -0.0051,0 -0.0104,0 -0.01561,0 -0.0052,-6e-4 -0.01035,-0 -0.01397,-0.01 -0.0036,-0 -0.0054,-0.01 -0.0059,-0.014 -4.62e-4,-0.01 3.6e-4,-0.01 0.0015,-0.015 0.0012,-0.01 0.0027,-0.01 0.0038,-0.015 0.001,-0 0.0015,-0.01 5.77e-4,-0.015 -0.0011,-0.01 -0.0042,-0.011 -0.0083,-0.016 -0.0041,-0 -0.0093,-0.01 -0.01491,-0.01 -0.01113,-0 -0.02346,-0.01 -0.03553,-0.01 -0.01207,-5e-4 -0.02436,-9e-4 -0.03582,-0 -0.0057,-0 -0.01121,-0 -0.01584,-0.01 -0.0046,-0 -0.0084,-0.01 -0.0104,-0.015 -0.0017,-0 -0.0021,-0.01 -0.0019,-0.015 2.25e-4,-0 0.0011,-0.01 0.002,-0.015 8.61e-4,-0.01 0.0017,-0.01 0.0019,-0.015 2.05e-4,-0.01 -2.6e-4,-0.01 -0.002,-0.015 -0.0025,-0.01 -0.0075,-0.013 -0.01316,-0.017 -0.0057,-0 -0.01214,-0.01 -0.01847,-0.012 -0.0063,-0 -0.01264,-0.01 -0.01793,-0.013 -0.0053,-0 -0.0095,-0.011 -0.01083,-0.019 -9.23e-4,-0.01 -2.99e-4,-0.011 8.72e-4,-0.016 0.0012,-0.01 0.0029,-0.01 0.0042,-0.015 0.0013,-0.01 0.0022,-0.01 0.0016,-0.015 -5.7e-4,-0.01 -0.0027,-0.01 -0.0066,-0.014 -0.0039,-0 -0.0093,-0 -0.0145,-0 -0.0052,0 -0.01035,0 -0.01537,0 -0.005,0 -0.01,0 -0.01516,0 -0.0052,7e-4 -0.0106,5e-4 -0.01537,-0 -0.0052,-0 -0.0093,-0.01 -0.01162,-0.012 -0.0023,-0.01 -0.0028,-0.011 -0.0021,-0.017 0.0014,-0.011 0.0076,-0.022 0.01363,-0.031 0.006,-0.01 0.0122,-0.02 0.01367,-0.031 7.34e-4,-0.01 2.21e-4,-0.012 -0.002,-0.017 -0.0023,-0.01 -0.0063,-0.01 -0.01156,-0.012 -0.0048,-0 -0.01018,-0 -0.01534,-0 -0.0052,7e-4 -0.01015,0 -0.01516,0 -0.005,0 -0.01014,0 -0.01535,0 -0.0052,0 -0.01058,-0 -0.01454,-0 -0.004,-0 -0.0062,-0.01 -0.0069,-0.014 -6.68e-4,-0.01 1.09e-4,-0.011 0.0014,-0.016 0.0012,-0.01 0.003,-0.01 0.0042,-0.015 0.0012,-0.01 0.002,-0.01 0.0013,-0.016 -9.4e-4,-0.01 -0.0047,-0.014 -0.0095,-0.019 -0.0049,-0.01 -0.01088,-0.01 -0.01704,-0.014 -0.0062,-0 -0.01254,-0.01 -0.01847,-0.012 -0.0059,-0 -0.01145,-0.01 -0.01534,-0.015 -0.0055,-0.01 -0.0074,-0.019 -0.0071,-0.03 3.28e-4,-0.01 0.0027,-0.021 0.0053,-0.031 0.0026,-0.01 0.0053,-0.02 0.0062,-0.03 9.39e-4,-0.01 1.4e-5,-0.021 -0.0044,-0.03 -0.0031,-0.01 -0.0078,-0.012 -0.01301,-0.017 -0.0053,-0 -0.01111,-0.01 -0.01696,-0.013 -0.0117,-0.01 -0.0239,-0.017 -0.03042,-0.03 -0.0047,-0.01 -0.006,-0.02 -0.0055,-0.03 5.57e-4,-0.01 0.0029,-0.02 0.0053,-0.03 0.0024,-0.01 0.0047,-0.02 0.0054,-0.03 6.19e-4,-0.01 -6.16e-4,-0.021 -0.0052,-0.03 -0.0064,-0.013 -0.01841,-0.022 -0.03005,-0.03 -0.01164,-0.01 -0.02375,-0.017 -0.03034,-0.03 -0.0047,-0.01 -0.0062,-0.02 -0.0058,-0.03 3.84e-4,-0.01 0.0026,-0.02 0.0048,-0.03 0.0022,-0.01 0.0046,-0.02 0.0053,-0.03 7.33e-4,-0.01 -2.05e-4,-0.021 -0.0043,-0.03 -0.0057,-0.013 -0.01693,-0.023 -0.02831,-0.032 -0.01138,-0.01 -0.02347,-0.017 -0.03207,-0.028 -0.01263,-0.017 -0.01631,-0.039 -0.01448,-0.06 0.0018,-0.021 0.0087,-0.041 0.01543,-0.061 0.0067,-0.02 0.01344,-0.04 0.01494,-0.061 0.0015,-0.021 -0.0027,-0.043 -0.01589,-0.06 -0.009,-0.011 -0.02145,-0.019 -0.03298,-0.028 -0.0058,-0 -0.01136,-0.01 -0.01619,-0.014 -0.0048,-0.01 -0.0089,-0.011 -0.01123,-0.018 -0.0033,-0.01 -0.003,-0.02 -0.0021,-0.03 9.7e-4,-0.01 0.0026,-0.02 0.0021,-0.03 -6.44e-4,-0.011 -0.0041,-0.022 -0.009,-0.033 -0.0049,-0.01 -0.01121,-0.02 -0.01775,-0.029 -0.01307,-0.019 -0.02744,-0.037 -0.03359,-0.059 -0.0055,-0.019 -0.004,-0.04 0,-0.06 0.0041,-0.021 0.01089,-0.04 0.01322,-0.061 0.0012,-0.01 0.0012,-0.021 -7.73e-4,-0.031 -0.002,-0.01 -0.006,-0.02 -0.01244,-0.028 -0.0089,-0.011 -0.02174,-0.019 -0.03349,-0.027 -0.0059,-0 -0.01157,-0.01 -0.01636,-0.014 -0.0048,-0.01 -0.0087,-0.012 -0.01054,-0.019 -0.0026,-0.01 -0.0011,-0.02 3.52e-4,-0.03 0.0014,-0.01 0.0027,-0.02 -3.52e-4,-0.03 -0.0022,-0.01 -0.0065,-0.013 -0.01156,-0.018 -0.0051,-0.01 -0.01102,-0.01 -0.017,-0.013 -0.006,-0 -0.01208,-0.01 -0.01766,-0.012 -0.0056,-0 -0.01068,-0.01 -0.01417,-0.016 -0.005,-0.01 -0.0065,-0.02 -0.0059,-0.03 5.83e-4,-0.01 0.0031,-0.02 0.0056,-0.03 0.0025,-0.01 0.0051,-0.02 0.0057,-0.03 6.71e-4,-0.01 -6.46e-4,-0.021 -0.0055,-0.03 -0.0034,-0.01 -0.0084,-0.012 -0.01384,-0.016 -0.0055,-0 -0.01151,-0.01 -0.01745,-0.013 -0.0059,-0 -0.01184,-0.01 -0.017,-0.013 -0.0052,-0.01 -0.0096,-0.011 -0.0121,-0.018 -0.0038,-0.01 -0.0029,-0.021 -1.65e-4,-0.032 0.0027,-0.01 0.0073,-0.02 0.01088,-0.031 0.0036,-0.01 0.0063,-0.021 0.0053,-0.032 -5.38e-4,-0.01 -0.002,-0.011 -0.0047,-0.015 -0.0027,-0 -0.0065,-0.01 -0.01127,-0.011 -0.0045,-0 -0.0096,-0 -0.01472,-0 -0.0051,-2e-4 -0.01022,4e-4 -0.01526,0 -0.01009,0 -0.02032,0 -0.03041,0 -0.0072,-0 -0.01394,-0 -0.01976,-0.01 -0.0058,-0 -0.01077,-0.01 -0.01519,-0.016 -0.0088,-0.012 -0.01571,-0.025 -0.02544,-0.035 -0.01079,-0.012 -0.02479,-0.021 -0.0397,-0.027 -0.01491,-0.01 -0.03077,-0.01 -0.0467,-0.013 -0.03186,-0.01 -0.06479,-0.01 -0.09479,-0.02 -0.02096,-0.01 -0.03967,-0.021 -0.05889,-0.033 -0.01922,-0.012 -0.03959,-0.023 -0.0619,-0.027 -0.01997,-0 -0.04037,-5e-4 -0.06049,0 -0.02012,0 -0.04083,0 -0.0603,-0 -0.01392,-0 -0.02667,-0.011 -0.0378,-0.021 -0.01113,-0.01 -0.02073,-0.02 -0.02956,-0.032 -0.01767,-0.023 -0.03264,-0.048 -0.05343,-0.068 -0.02618,-0.025 -0.06047,-0.041 -0.09597,-0.05 -0.0355,-0.01 -0.07234,-0.01 -0.108791,-0.01 -0.07291,0 -0.147062,0.015 -0.218006,-0 -0.07971,-0.019 -0.145844,-0.073 -0.209794,-0.1242 -0.06395,-0.051 -0.132237,-0.1032 -0.21297,-0.1174 -0.03979,-0.01 -0.08062,-0 -0.12079,0 -0.02012,0 -0.04072,0 -0.06039,0 -0.01449,-0 -0.02797,-0.011 -0.03855,-0.022 -0.01058,-0.011 -0.01822,-0.024 -0.02184,-0.038 l -0.06039,0 -0.12079,0 -0.483159,0 -1.207898,0 -1.268293,0 -0.483159,0 c -0.03059,0 -0.06111,-0 -0.0914,-0.01 -0.01515,-0 -0.03038,-0 -0.04568,-0 -0.01529,3e-4 -0.03085,0 -0.04411,0.011 -0.01235,0.01 -0.02203,0.018 -0.03112,0.029 -0.0091,0.011 -0.01795,0.022 -0.02927,0.031 -0.02079,0.016 -0.04822,0.021 -0.07434,0.019 -0.02612,-0 -0.0514,-0.01 -0.07633,-0.017 -0.02493,-0.01 -0.05006,-0.016 -0.07613,-0.018 -0.02607,-0 -0.05357,0 -0.07517,0.016 -0.01174,0.01 -0.02125,0.019 -0.03051,0.03 -0.0093,0.011 -0.0185,0.022 -0.02988,0.03 -0.02072,0.016 -0.04727,0.022 -0.07318,0.022 -0.02591,10e-5 -0.05146,-0.01 -0.07654,-0.012 -0.02507,-0.01 -0.05004,-0.014 -0.07575,-0.017 -0.0257,-0 -0.0525,-0 -0.07651,0.01 -0.02699,0.011 -0.04925,0.033 -0.06039,0.06 -0.0089,-0.01 -0.01955,-0.01 -0.0302,-0.01 -0.01065,0 -0.02127,0 -0.03019,0.01 -0.01201,0.01 -0.02046,0.02 -0.02909,0.031 -0.0086,0.011 -0.01821,0.023 -0.0313,0.029 -0.0094,0 -0.02,0.01 -0.03025,0 -0.01026,-8e-4 -0.0203,-0 -0.03031,-0.01 -0.01002,-0 -0.02013,-0 -0.03042,-0 -0.01028,-3e-4 -0.02084,0 -0.02981,0.01 -0.0063,0 -0.01159,0.01 -0.01619,0.014 -0.0046,0.01 -0.0086,0.012 -0.01267,0.017 -0.0041,0.01 -0.0084,0.012 -0.0135,0.017 -0.0051,0.01 -0.01118,0.01 -0.01803,0.012 -0.01056,0 -0.02217,0 -0.03271,-0 -0.01054,-0 -0.0204,-0.01 -0.03074,-0.013 -0.01035,-0 -0.02156,-0.01 -0.03252,-0.01 -0.0055,9e-4 -0.01082,0 -0.01526,0.01 -0.0044,0 -0.0079,0.01 -0.0096,0.013 -0.0015,0 -0.0013,0.01 -4.72e-4,0.015 8.73e-4,0.01 0.0024,0.01 0.0037,0.015 0.0013,0.01 0.0023,0.01 0.0021,0.015 -2.48e-4,0.01 -0.0019,0.01 -0.0053,0.014 -0.0035,0 -0.0087,0.01 -0.01387,0.01 -0.0052,7e-4 -0.01052,-1e-4 -0.015646,-0 -0.00512,-0 -0.010125,-0 -0.01524,-0 -0.00511,-0 -0.010406,-0 -0.015634,-0 -0.0073,8e-4 -0.014263,0 -0.019163,0.01 -0.0049,0.01 -0.0077,0.013 -0.0077,0.02 0,0.01 0.0028,0.015 0.0077,0.02 0.0049,0.01 0.011861,0.01 0.019163,0.01 -0.00139,-0.01 -0.00524,-0.013 -0.010687,-0.018 -0.00545,-0 -0.012468,-0.01 -0.01951,-0.01 -0.00704,0 -0.01406,0 -0.01951,0.01 -0.00545,0 -0.00929,0.011 -0.010687,0.018 -0.00202,0.01 0.00102,0.02 0.00303,0.03 0.00101,0 0.00176,0.01 0.00149,0.015 -2.699e-4,0.01 -0.00162,0.01 -0.00452,0.014 -0.00322,0 -0.00823,0.01 -0.013667,0.01 -0.00544,0 -0.011275,0 -0.016857,6e-4 -0.011164,-0 -0.021092,-0.01 -0.030917,-0.014 -0.00983,-0.01 -0.020246,-0.011 -0.031578,-0.012 -0.00567,-3e-4 -0.011473,6e-4 -0.016517,0 -0.00504,0 -0.00927,0.01 -0.011254,0.012 -0.00183,0 -0.00169,0.01 -6.916e-4,0.015 0.001,0.01 0.00283,0.01 0.00435,0.015 0.00152,0.01 0.00274,0.01 0.00246,0.015 -1.366e-4,0 -6.517e-4,0.01 -0.00165,0.01 -0.001,0 -0.0025,0 -0.00446,0.01 -0.00197,0 -0.00438,0 -0.00691,0 -0.00253,7e-4 -0.00519,9e-4 -0.00782,8e-4 -0.00526,-3e-4 -0.010337,-0 -0.015319,-0 -0.00498,-0 -0.00999,-0 -0.015225,-0 -0.00523,-6e-4 -0.010799,2e-4 -0.015121,0 -0.00436,0 -0.00703,0.01 -0.00796,0.013 -9.303e-4,0.01 -2.689e-4,0.011 9.895e-4,0.016 0.00126,0.01 0.0031,0.01 0.00459,0.015 0.00148,0.01 0.00261,0.01 0.00238,0.016 -3.832e-4,0.01 -0.00451,0.017 -0.010703,0.023 -0.0062,0.01 -0.014355,0.01 -0.022859,0.012 -0.017009,0 -0.034622,-0 -0.050347,-0.01 -0.015725,-0.01 -0.030404,-0.017 -0.046568,-0.023 -0.00808,-0 -0.01654,-0.01 -0.025187,-0.01 -0.00865,-7e-4 -0.017501,3e-4 -0.025521,0 -0.013249,0.01 -0.023241,0.017 -0.032,0.028 -0.00876,0.011 -0.016971,0.024 -0.028395,0.032 -0.011316,0.01 -0.025301,0.013 -0.039437,0.014 -0.014136,0 -0.028431,-8e-4 -0.042044,-0 -0.027225,-0.01 -0.051541,-0.023 -0.076755,-0.036 -0.025214,-0.013 -0.052849,-0.024 -0.081147,-0.022 -0.014149,10e-4 -0.02819,0.01 -0.039643,0.014 -0.011454,0.01 -0.020156,0.021 -0.022948,0.035 -0.00198,0.01 -0.00101,0.02 -2.83e-5,0.03 9.819e-4,0.01 0.00197,0.02 2.83e-5,0.03 -0.00274,0.014 -0.011344,0.026 -0.022719,0.035 -0.011374,0.01 -0.025355,0.013 -0.039482,0.014 -0.028254,0 -0.055996,-0.01 -0.081284,-0.021 -0.025288,-0.013 -0.049606,-0.028 -0.076759,-0.036 -0.013576,-0 -0.027823,-0.01 -0.041968,-0.01 -0.014145,10e-4 -0.028201,0.01 -0.039763,0.014 -0.011646,0.01 -0.020282,0.02 -0.029143,0.031 -0.00886,0.011 -0.018502,0.022 -0.031252,0.029 -0.014135,0.01 -0.030814,0.01 -0.046425,0.01 -0.015611,-0 -0.030511,-0.01 -0.045545,-0.013 -0.015034,-0 -0.030568,-0.01 -0.046401,-0.01 -0.00792,10e-5 -0.015854,0 -0.023252,0 -0.0074,0 -0.014247,0.01 -0.019561,0.013 -0.00736,0.01 -0.011562,0.019 -0.011562,0.03 0,0.011 0.0042,0.022 0.011562,0.03 l -0.3019744,0 c 3.7e-6,0 2.48e-5,0 4.16e-5,0 1.69e-5,0 2.61e-5,0 1.94e-5,0 -6.7e-6,0 -2.76e-5,0 -4.45e-5,0 -1.7e-5,0 -2.76e-5,0 -2.4e-5,0 3.6e-6,0 2.06e-5,0 3.85e-5,0 1.8e-5,0 3.51e-5,0 4.06e-5,0 5.5e-6,0 -8e-7,0 -1.46e-5,0 -1.39e-5,10e-5 -3.44e-5,10e-5 -5.07e-5,10e-5 -1.62e-5,-10e-5 -2.76e-5,-10e-5 -2.91e-5,-10e-5 -1.5e-6,0 6.7e-6,0 2.08e-5,0 1.4e-5,-10e-5 3.33e-5,-10e-5 5.07e-5,0 1.74e-5,0 3.25e-5,0 4.06e-5,0 8.2e-6,0 9.4e-6,0 3.7e-6,0 -5.6e-6,10e-5 -1.79e-5,10e-5 -3.35e-5,10e-5 -1.56e-5,0 -3.43e-5,0 -5.19e-5,0 -1.77e-5,0 -3.43e-5,0 -4.68e-5,0 -7.1e-6,0 -1.12e-5,-10e-5 -1.2e-5,-10e-5 -7e-7,0 1.9e-6,0 7.2e-6,0 5.3e-6,0 1.34e-5,0 2.3e-5,0 9.6e-6,0 2.09e-5,0 3.25e-5,0 2.34e-5,-10e-5 4.8e-5,0 6.79e-5,0 1.98e-5,0 3.48e-5,0 4.35e-5,0 8.8e-6,0 1.13e-5,10e-5 8.8e-6,10e-5 -2.6e-6,0 -1.02e-5,0 -2.11e-5,10e-5 -2.18e-5,0 -5.64e-5,0 -9.46e-5,10e-5 -0.0051,-5e-4 -0.00997,-0 -0.014945,-0 -0.00497,-0 -0.010091,-0 -0.015205,-0 -0.00511,2e-4 -0.010156,0 -0.015142,0 -0.00499,0 -0.010001,0 -0.015118,0 0,0 0,0 0,0 0,0 0,0 0,0 0,0 0,0 0,0 0,0 0,0 0,0 0,0 0,0 0,0 0,0 0,0 0,0 0,0 0,0 0,0 0,0 0,0 0,0 0,0 0,0 0,0 0,0 0,0 0,0 0,0 0,0 0,0 0,0 0,0 0,0 0,0 0,0 0,0 0,0 0,0 0,0 0,0 0,0 0,0 0,0 0,0 0,0 -1.8e-6,0 4.2e-6,0 1.02e-5,0 6e-6,0 9.6e-6,0 6.7e-6,0 -2.8e-6,0 -1.09e-5,0 -1.56e-5,0 -4.7e-6,0 -5.1e-6,0 -1e-6,0 4.1e-6,0 1.18e-5,0 1.65e-5,0 4.8e-6,0 6.2e-6,0 3.4e-6,0 -2.7e-6,0 -9.1e-6,0 -1.51e-5,0 -6.1e-6,0 -1.14e-5,0 -1.34e-5,0 -2.1e-6,0 -9e-7,0 2.6e-6,0 3.6e-6,0 9.4e-6,0 1.54e-5,0 6.1e-6,0 1.23e-5,0 1.74e-5,0 5.1e-6,0 9e-6,0 1.15e-5,0 4.9e-6,0 4e-6,0 3e-7,0 -3.8e-6,0 -1.02e-5,10e-5 -1.62e-5,10e-5 4e-7,0 8e-7,0 1.2e-6,0 2e-7,0 5e-7,0 7e-7,0 3e-7,0 5e-7,0 7e-7,0 3e-7,0 5e-7,0 6e-7,0 10e-8,0 10e-8,0 10e-8,0 -10e-8,0 -3e-7,0 -5e-7,0 -2e-7,0 -5e-7,0 -7e-7,0 -2e-7,0 -3e-7,0 -2e-7,0 0,0 2e-7,0 5e-7,0 2e-7,0 5e-7,0 5e-7,0 0,0 -10e-8,0 -4e-7,0 -2e-7,0 -5e-7,0 -5e-7,0 0,0 3e-7,0 5e-7,0 2e-7,0 4e-7,0 2e-7,0 -10e-8,0 -5e-7,0 -6e-7,0 -6.298e-4,-2e-4 -0.00134,5e-4 -0.00111,0 2.299e-4,6e-4 0.00128,7e-4 0.00155,10e-5 2.709e-4,-6e-4 -5.138e-4,-0 -0.00109,-0 -5.784e-4,4e-4 -3.231e-4,0 3.367e-4,0 6.592e-4,0 9.056e-4,-0 2.955e-4,-0 -6.1e-4,-3e-4 -0.00121,8e-4 -6.792e-4,0 5.308e-4,3e-4 0.00133,-6e-4 8.446e-4,-10e-4 -4.832e-4,-5e-4 -0.00135,4e-4 -8.539e-4,9e-4 -0.042932,-0.037 -0.1106039,0.052 -0.0625,0.082 0.048104,0.03 0.095837,-0.074 0.041161,-0.089 -0.054676,-0.015 -0.063587,0.1016 -0.00739,0.093 0.056201,-0.01 0.00841,-0.118 -0.035108,-0.082 -0.044171,0.037 0.061446,0.1007 0.072356,0.044 0.01091,-0.056 -0.1119746,-0.03 -0.078219,0.016 0.033756,0.046 0.092233,-0.067 0.034775,-0.066 -0.057458,5e-4 0.00926,0.1112 0.035607,0.06 0,0 0,0 0,0 0,0 0,0 0,0 0,0 0,0 0,0 0,0 0,0 0,0 0,0 0,0 0,0 0,0 0,0 0,0 0,0 0,0 0,0 0,0 0,0 0,0 0,0 0,0 0,0 0,0 0,0 0,0 0,0 0,0 0,0 0,0 0,0 0,0 0,0 0,0 0,0 0,0 0,0 0,0 0,0 0,0 0,0 0,0 0,0 0,0 -5e-7,0 -9.1e-6,0 -1.34e-5,0 -4.2e-6,0 -1.7e-6,0 4e-6,0 5.7e-6,0 1.19e-5,0 1.1e-5,0 -9e-7,0 -8.1e-6,0 -1.35e-5,0 -5.5e-6,0 -7.8e-6,0 -4.9e-6,0 2.8e-6,0 1.01e-5,0 1.54e-5,0 5.3e-6,0 8e-6,0 6.4e-6,0 -1.6e-6,0 -7.2e-6,0 -1.31e-5,0 -5.9e-6,0 -1.18e-5,0 -1.49e-5,0 -3.1e-6,0 -3.4e-6,0 -1.1e-6,0 2.2e-6,0 6.9e-6,0 1.24e-5,0 5.5e-6,0 1.17e-5,0 1.74e-5,0 5.7e-6,0 1.09e-5,0 1.51e-5,0 4.3e-6,0 7.6e-6,0 1.02e-5,0 5.1e-6,0 7.2e-6,0 9.3e-6,0 1e-7,0 3e-7,0 4e-7,0 10e-8,0 2e-7,0 3e-7,0 0,0 10e-8,0 2e-7,0 1e-7,0 2e-7,0 3e-7,0 0,0 1e-7,0 1e-7,0 -1e-7,0 -1e-7,0 -2e-7,0 -10e-8,0 -2e-7,0 -3e-7,0 -10e-8,0 -10e-8,0 -10e-8,0 10e-8,0 2e-7,0 3e-7,0 10e-8,0 10e-8,0 10e-8,0 0,0 -10e-8,0 -2e-7,0 -10e-8,0 -10e-8,0 -10e-8,0 10e-8,0 2e-7,0 3e-7,0 0,0 -10e-8,0 -2e-7,0 -10e-8,0 -10e-8,0 -10e-8,0 -1.97e-4,0 -3.522e-4,3e-4 -2.187e-4,4e-4 1.334e-4,2e-4 4.361e-4,0 4.007e-4,-2e-4 -3.54e-5,-10e-5 -3.816e-4,-2e-4 -4.271e-4,0 -4.55e-5,2e-4 2.876e-4,4e-4 3.819e-4,2e-4 9.58e-5,-2e-4 -2.154e-4,-4e-4 -3.308e-4,-2e-4 -1.154e-4,1e-4 1.965e-4,4e-4 3.069e-4,2e-4 1.103e-4,-2e-4 -2.328e-4,-4e-4 -3.121e-4,-2e-4 -7.94e-5,2e-4 3.113e-4,3e-4 3.283e-4,1e-4 -0.034893,-0.043 -0.1061491,0.048 -0.05552,0.07 0.050629,0.023 0.064792,-0.095 0.010511,-0.083 -0.054281,0.011 0.010845,0.1121 0.042334,0.067 0.031489,-0.046 -0.089364,-0.065 -0.072585,-0.012 0.019913,0.055 0.1043952,-0.045 0.046883,-0.054 -0.057512,-0.01 -0.00227,0.1108 0.027066,0.06 0.029331,-0.05 -0.1030056,-0.032 -0.060161,0.01 0.042844,0.04 0.043348,-0.095 9.082e-4,-0.055 -5.873e-4,-7e-4 -9.705e-4,-0 -0.0011,-0 -1.286e-4,-9e-4 -2.8e-6,-0 3.522e-4,-0 3.55e-4,-9e-4 9.376e-4,-0 0.00167,-0 7.273e-4,-5e-4 0.0016,-9e-4 0.0025,-10e-4 0.0018,-2e-4 0.0037,5e-4 0.00493,0 0.00123,0 0.00179,0 0.00151,0.01 -2.736e-4,0 -0.00135,0 -0.00286,0 -0.00151,0 -0.00342,0 -0.00521,0 -0.0018,-3e-4 -0.00347,-0 -0.00467,-0 -0.0012,-0 -0.00193,-0 -0.00212,-0 -1.839e-4,-0 1.732e-4,-0 9.627e-4,-0.01 7.896e-4,-0 0.002,-0 0.00346,-0 0.00292,-0 0.00674,-0 0.010357,-0 0.00362,4e-4 0.00704,0 0.010064,0 0.00302,0 0.00567,0 0.00823,0.01 0.00505,0.01 0.010026,0.011 0.016765,0.014 0.00337,0 0.00714,0 0.01065,9e-4 0.00175,-5e-4 0.00343,-0 0.00485,-0 0.00142,-0 0.00259,-0 0.00333,-0 7.365e-4,-0 0.00103,-0 7.874e-4,-0.01 -2.45e-4,-0 -0.00104,-0 -0.00228,-0 -0.00125,-0 -0.00295,-0 -0.00474,-0 -0.0018,-2e-4 -0.00368,3e-4 -0.00513,0 -0.00145,0 -0.00244,0 -0.00262,0 -1.772e-4,0 4.797e-4,0 0.00178,0 6.506e-4,6e-4 0.00145,0 0.00232,0 8.667e-4,2e-4 0.0018,3e-4 0.00269,10e-5 8.876e-4,-2e-4 0.00173,-6e-4 0.00242,-0 6.87e-4,-6e-4 0.00122,-0 0.00151,-0 0.00221,-0.015 2.903e-4,-0.03 -0.00548,-0.044 -0.00577,-0.014 -0.015383,-0.026 -0.027464,-0.035 -0.012081,-0.01 -0.026599,-0.014 -0.041487,-0.015 -0.014889,-0 -0.030106,0 -0.043487,0.01 -0.013381,0.01 -0.024888,0.017 -0.032885,0.03 -0.008,0.013 -0.012459,0.028 -0.012753,0.042 -2.939e-4,0.015 0.00358,0.03 0.011075,0.043 0.00749,0.013 0.018584,0.024 0.031694,0.031 -4.981e-4,-0.01 -0.00397,-0.015 -0.00951,-0.02 -0.00554,-0.01 -0.013094,-0.01 -0.020685,-0.01 -0.00759,0 -0.015144,0 -0.020685,0.01 -0.00554,0.01 -0.00901,0.013 -0.00951,0.02 -3.47e-4,0.01 6.941e-4,0.011 0.00212,0.016 0.00143,0.01 0.00324,0.01 0.0045,0.015 0.00126,0.01 0.00195,0.01 0.00108,0.016 -8.656e-4,0.01 -0.00343,0.01 -0.0077,0.013 -0.00424,0 -0.00976,0 -0.014982,0 -0.00523,-5e-4 -0.010262,-0 -0.015244,-0 -0.00498,-0 -0.010031,-0 -0.015262,-0 -0.00523,-4e-4 -0.010744,6e-4 -0.014907,0 -0.00418,0 -0.0066,0.01 -0.00734,0.014 -7.38e-4,0.01 6.16e-5,0.01 0.00137,0.016 0.00131,0.01 0.00311,0.01 0.00445,0.015 0.00133,0.01 0.00219,0.01 0.00153,0.016 -7.545e-4,0.01 -0.00351,0.012 -0.00742,0.016 -0.00392,0 -0.00897,0.01 -0.014435,0.011 -0.010935,0.01 -0.023271,0.01 -0.035339,0.01 -0.012068,7e-4 -0.024321,9e-4 -0.035906,0 -0.00579,0 -0.011382,0 -0.016233,0.01 -0.00485,0 -0.00895,0.01 -0.011452,0.014 -0.00419,0.01 -0.00366,0.02 -0.00228,0.03 0.00138,0.01 0.00352,0.02 0.00228,0.03 -0.00182,0.015 -0.010872,0.028 -0.022151,0.038 -0.011279,0.01 -0.024733,0.016 -0.038045,0.023 -0.013312,0.01 -0.026781,0.013 -0.038115,0.023 -0.011334,0.01 -0.020496,0.023 -0.022478,0.037 -0.00135,0.01 6.55e-4,0.02 0.00199,0.03 0.00133,0.01 0.00194,0.021 -0.00199,0.03 -0.00231,0.01 -0.00611,0.01 -0.010679,0.014 -0.00457,0 -0.00989,0.01 -0.015456,0.01 -0.011141,0 -0.023145,0.01 -0.034974,0.01 -0.011829,0 -0.02384,0 -0.03483,0.01 -0.0055,0 -0.010692,0.01 -0.015055,0.01 -0.00436,0 -0.00787,0.01 -0.0098,0.015 -0.00327,0.01 -0.00179,0.02 -2.04e-4,0.03 0.00158,0.01 0.00321,0.02 2.04e-4,0.03 -0.00215,0.01 -0.00657,0.013 -0.01181,0.018 -0.00524,0.01 -0.011298,0.01 -0.017381,0.013 -0.00608,0 -0.012249,0.01 -0.01778,0.012 -0.00553,0 -0.010452,0.01 -0.013424,0.017 -0.00439,0.01 -0.0042,0.021 -0.00192,0.031 0.00228,0.011 0.00652,0.02 0.010056,0.031 0.00354,0.01 0.00642,0.021 0.00582,0.031 -3e-4,0.01 -0.00149,0.011 -0.0038,0.015 -0.00231,0 -0.00576,0.01 -0.010157,0.012 -0.0046,0 -0.010128,0 -0.015702,0.01 -0.00557,5e-4 -0.011202,-3e-4 -0.016591,-0 -0.010779,-0 -0.020543,-0.01 -0.030621,-0.014 -0.010077,-0 -0.020995,-0.01 -0.032153,-0.01 -0.00558,4e-4 -0.011125,0 -0.015776,0.01 -0.00465,0 -0.00836,0.01 -0.00995,0.013 -0.0015,0.01 -0.00109,0.011 8.32e-5,0.016 0.00117,0.01 0.00308,0.01 0.00459,0.015 0.00151,0.01 0.00263,0.01 0.00217,0.016 -2.302e-4,0 -8.619e-4,0.01 -0.00199,0.01 -0.00113,0 -0.00277,0 -0.00485,0.01 -0.0021,0 -0.00462,0 -0.00722,0 -0.00261,5e-4 -0.0053,5e-4 -0.00793,2e-4 -0.00527,-6e-4 -0.010276,-0 -0.015249,-0 -0.00497,-0 -0.010072,-0 -0.01538,-0 -0.00265,-10e-5 -0.00534,2e-4 -0.00787,10e-4 -0.00253,8e-4 -0.0049,0 -0.00673,0 -0.00183,0 -0.00309,0 -0.00379,0.01 -7.04e-4,0 -8.613e-4,0.01 -6.406e-4,0.01 4.415e-4,0.01 0.00236,0.01 0.00427,0.015 0.00191,0 0.00385,0.01 0.00435,0.015 2.509e-4,0 1.32e-4,0.01 -5.282e-4,0.01 -6.603e-4,0 -0.00187,0 -0.00366,0.01 -0.00179,0 -0.00411,0 -0.00661,0 -0.0025,9e-4 -0.00518,0 -0.00783,0 -0.0053,-1e-4 -0.010437,-0 -0.015423,-0 -0.00499,-0 -0.00997,-0 -0.015214,-0 -0.00525,-8e-4 -0.010897,-2e-4 -0.015316,0 -0.00443,0 -0.00717,0.01 -0.00811,0.013 -9.427e-4,0.01 -2.521e-4,0.011 0.00104,0.016 0.0013,0.01 0.00319,0.01 0.0047,0.015 0.00151,0.01 0.00265,0.01 0.00236,0.016 -3.181e-4,0.01 -0.00247,0.012 -0.00582,0.017 -0.00335,0 -0.00788,0.01 -0.012948,0.012 -0.010139,0.01 -0.022204,0.01 -0.034138,0.011 -0.011934,0 -0.024027,0 -0.03582,0 -0.011793,0 -0.023528,0.01 -0.032059,0.015 -0.00854,0.01 -0.013165,0.02 -0.015623,0.032 -0.00246,0.012 -0.00297,0.024 -0.00457,0.036 -0.0016,0.012 -0.0044,0.024 -0.010904,0.034 -0.00325,0.01 -0.00742,0.01 -0.012424,0.013 -0.005,0 -0.010862,0.01 -0.016878,0.01 -0.00535,3e-4 -0.010678,-9e-4 -0.015814,-0 -0.00514,-0 -0.010157,-0 -0.015352,-0 -0.00519,-0 -0.010643,-0 -0.015915,-0 -0.00264,5e-4 -0.00521,0 -0.00751,0 -0.0023,0 -0.00433,0 -0.0058,0.01 -0.00289,0 -0.00344,0.01 -0.0027,0.015 7.472e-4,0.01 0.00268,0.01 0.00446,0.015 0.00178,0 0.00342,0.01 0.00354,0.015 6.21e-5,0 -2.642e-4,0.01 -0.00112,0.01 -8.585e-4,0 -0.00226,0 -0.00418,0.01 -0.00194,0 -0.00438,0 -0.00695,0 -0.00257,7e-4 -0.00527,8e-4 -0.00792,6e-4 -0.0053,-5e-4 -0.01035,-0 -0.015316,-0 -0.00497,-0 -0.010008,-0 -0.015305,-0 -0.00265,-3e-4 -0.00535,-2e-4 -0.00792,5e-4 -0.00257,7e-4 -0.00502,0 -0.00699,0 -0.00194,0 -0.00337,0 -0.00427,0.01 -8.93e-4,0 -0.00126,0.01 -0.00123,0.01 5.07e-5,0.01 0.00163,0.01 0.00337,0.015 0.00174,0.01 0.00367,0.01 0.00447,0.015 8.018e-4,0.01 3.75e-4,0.011 -0.00235,0.015 -0.0028,0 -0.0078,0.01 -0.013069,0.01 -0.00527,0 -0.010803,7e-4 -0.016072,-5e-4 -0.010538,-0 -0.020463,-0.01 -0.031254,-0.01 -0.00759,-5e-4 -0.015233,0 -0.021987,0 -0.00675,0 -0.012641,0.01 -0.017579,0.014 -0.00988,0.012 -0.01589,0.026 -0.02163,0.04 -0.00574,0.014 -0.011489,0.028 -0.020963,0.04 -0.00474,0.01 -0.010395,0.011 -0.016961,0.015 -0.00657,0 -0.014066,0.01 -0.021669,0.01 -0.010528,10e-5 -0.020551,-0 -0.030868,-0.01 -0.00516,-0 -0.010492,-0 -0.015689,-8e-4 -0.0052,9e-4 -0.010275,0 -0.013837,0.01 -0.0035,0 -0.00534,0.01 -0.00585,0.014 -5.101e-4,0.01 2.212e-4,0.01 0.00133,0.015 0.00111,0 0.0026,0.01 0.00363,0.015 0.00104,0 0.00162,0.01 8.809e-4,0.015 -0.00103,0.01 -0.00473,0.014 -0.010216,0.019 -0.00549,0 -0.012719,0.01 -0.019981,0.01 -0.00726,0 -0.014494,-0 -0.019981,-0.01 -0.00549,-0 -0.00919,-0.012 -0.010216,-0.019 0.00977,0.01 0.015941,0.018 0.015941,0.03 0,0.012 -0.00617,0.023 -0.015941,0.03 -0.00862,0.01 -0.019426,0.01 -0.029806,0.01 -0.010379,-6e-4 -0.020486,-0 -0.030474,-0.01 -0.00999,-0 -0.020041,-0.01 -0.030402,-0.01 -0.01036,-9e-4 -0.021195,6e-4 -0.030108,0.01 -0.010106,0.01 -0.016828,0.017 -0.020681,0.028 -0.00385,0.011 -0.00516,0.023 -0.00674,0.035 -0.00158,0.012 -0.00351,0.024 -0.00847,0.034 -0.00248,0.01 -0.00572,0.01 -0.00983,0.015 -0.00411,0 -0.00911,0.01 -0.014669,0.01 -0.00958,0 -0.020088,0 -0.030139,8e-4 -0.010051,-0 -0.020368,-0 -0.030256,-8e-4 -0.00705,0 -0.013533,0.01 -0.019133,0.01 -0.0056,0 -0.010362,0.01 -0.014714,0.016 -0.0087,0.012 -0.015983,0.024 -0.026548,0.034 -0.010692,0.01 -0.024153,0.017 -0.036046,0.025 -0.00595,0 -0.011552,0.01 -0.01597,0.015 -0.00442,0.01 -0.00761,0.013 -0.00838,0.02 -0.00108,0.01 0.00267,0.02 0.00479,0.03 0.00106,0.01 0.00171,0.01 0.00114,0.015 -5.693e-4,0.01 -0.00244,0.01 -0.00593,0.014 -0.00356,0 -0.00861,0.01 -0.013799,0.01 -0.00519,9e-4 -0.010544,5e-4 -0.015722,-5e-4 -0.010357,-0 -0.020335,-0.01 -0.030874,-0.01 -0.00982,-4e-4 -0.019621,0 -0.027904,0.01 -0.00828,0.01 -0.015088,0.013 -0.020309,0.021 -0.01044,0.017 -0.01451,0.036 -0.017681,0.056 -0.00317,0.019 -0.00572,0.039 -0.013625,0.057 -0.00395,0.01 -0.00926,0.017 -0.016199,0.024 -0.00694,0.01 -0.015563,0.012 -0.025071,0.015 -0.00978,0 -0.020087,0 -0.030151,10e-4 -0.010064,-10e-4 -0.020213,-0 -0.030244,-10e-4 -0.011362,0 -0.022196,0.01 -0.031534,0.013 -0.00934,0.01 -0.017224,0.015 -0.02381,0.024 -0.013172,0.019 -0.02112,0.041 -0.029763,0.062 -0.00864,0.021 -0.018423,0.043 -0.034349,0.059 -0.00796,0.01 -0.017426,0.015 -0.028048,0.019 -0.010622,0 -0.022432,0.01 -0.033681,0 -0.01069,-0 -0.02055,-0.01 -0.031231,-0.01 -0.00534,-10e-4 -0.010927,-0 -0.01618,2e-4 -0.00525,0 -0.010156,0 -0.012984,0.01 -0.0027,0 -0.00334,0.01 -0.00282,0.015 5.157e-4,0.01 0.00211,0.01 0.00363,0.015 0.00152,0.01 0.00298,0.01 0.00322,0.015 2.364e-4,0.01 -8.604e-4,0.011 -0.00402,0.015 -0.00323,0 -0.00836,0.01 -0.013605,0.01 -0.00524,8e-4 -0.010619,10e-5 -0.015775,-0 -0.00516,-0 -0.010167,-0 -0.015292,-0 -0.00512,-0 -0.010434,-0 -0.015724,-0 -0.00745,6e-4 -0.014621,0 -0.019685,0.01 -0.00506,0.01 -0.00797,0.013 -0.00797,0.02 0,0.01 0.0029,0.015 0.00797,0.02 0.00506,0.01 0.012238,0.01 0.019685,0.01 -0.01755,0.022 -0.037888,0.043 -0.060395,0.06 -0.035797,0.028 -0.077107,0.048 -0.1207898,0.06 -0.008,-0.01 -0.019066,-0.012 -0.030197,-0.012 -0.011131,0 -0.022199,0 -0.030197,0.012 -0.00861,0.01 -0.013415,0.02 -0.016059,0.032 -0.00264,0.012 -0.00334,0.024 -0.00501,0.035 -0.00167,0.012 -0.00444,0.024 -0.010742,0.034 -0.00315,0.01 -0.00718,0.01 -0.012047,0.013 -0.00486,0 -0.010578,0.01 -0.016533,0.01 -0.00522,6e-4 -0.010498,-2e-4 -0.015609,-0 -0.00511,-0 -0.010115,-0 -0.015234,-0 -0.00512,-0 -0.010413,-0 -0.015621,-0 -0.00521,6e-4 -0.010354,0 -0.013931,0.01 -0.00353,0 -0.0053,0.01 -0.00569,0.014 -3.928e-4,0.01 4.925e-4,0.01 0.00171,0.015 0.00122,0 0.00277,0.01 0.00374,0.015 9.751e-4,0.01 0.00136,0.01 2.379e-4,0.015 -0.00123,0.01 -0.00428,0.011 -0.00837,0.015 -0.0041,0 -0.00921,0.01 -0.014641,0.01 -0.010861,0 -0.022671,0 -0.033553,-0 -0.010882,-0 -0.021094,-0.01 -0.031533,-0.013 -0.010439,-0 -0.021348,-0.01 -0.03269,-0.01 -0.015944,-8e-4 -0.032106,0.01 -0.04343,0.017 -0.011325,0.011 -0.017638,0.027 -0.016965,0.043 -0.00856,-0.01 -0.019359,-0.01 -0.030197,-0.01 -0.010838,0 -0.021642,0 -0.030197,0.01 -0.00909,0.01 -0.015455,0.017 -0.019805,0.028 -0.00435,0.011 -0.00684,0.022 -0.0094,0.033 -0.00257,0.011 -0.00526,0.023 -0.00998,0.033 -0.00472,0.01 -0.011641,0.02 -0.021208,0.027 -0.00854,0.01 -0.01882,0.01 -0.029082,0.01 -0.010262,7e-4 -0.020563,-6e-4 -0.030683,-0 -0.020239,-0 -0.040656,-0.01 -0.061025,-0.01 -0.015059,0 -0.02937,0.01 -0.040161,0.02 -0.01079,0.011 -0.018001,0.025 -0.020234,0.04 -0.01987,-0 -0.040526,-0 -0.060395,0 -0.029595,0.01 -0.057343,0.021 -0.078684,0.042 -0.02134,0.021 -0.036189,0.049 -0.042106,0.079 l -0.1207898,0.06 c -0.018666,-0.01 -0.041729,-0.01 -0.060395,0 -0.013108,0.01 -0.023763,0.017 -0.032512,0.029 -0.00875,0.012 -0.015783,0.025 -0.023338,0.037 -0.00755,0.013 -0.015752,0.025 -0.026393,0.035 -0.01064,0.01 -0.023993,0.018 -0.038548,0.02 -0.010066,0 -0.020217,-5e-4 -0.03029,-0 -0.010073,-0 -0.020529,-0 -0.030105,0 -0.00679,0 -0.012823,0.01 -0.018002,0.012 -0.00518,0.01 -0.00956,0.011 -0.013751,0.016 -0.00838,0.012 -0.016469,0.024 -0.028642,0.032 -0.00869,0.01 -0.018966,0.01 -0.029212,0.01 -0.010246,6e-4 -0.020517,-7e-4 -0.030624,-0 -0.020214,-0 -0.040653,-0.01 -0.060954,-0.01 -0.015013,0 -0.029249,0.01 -0.040019,0.02 -0.01077,0.011 -0.018019,0.025 -0.020376,0.04 -0.00192,-0.01 -0.00597,-0.012 -0.011366,-0.016 -0.00539,-0 -0.012104,-0.01 -0.018832,-0.01 -0.00673,0 -0.013438,0 -0.018832,0.01 -0.00539,0 -0.00944,0.01 -0.011366,0.016 -0.00289,0.01 -9.783e-4,0.02 7.145e-4,0.03 8.465e-4,0 0.00164,0.01 0.00173,0.015 9.02e-5,0.01 -5.388e-4,0.01 -0.00244,0.015 -0.00207,0.01 -0.00563,0.01 -0.00998,0.013 -0.00435,0 -0.00949,0.01 -0.014839,0.01 -0.010708,0 -0.022064,0 -0.032703,-0 -0.010639,-0 -0.020766,-0.01 -0.031114,-0.011 -0.010348,-0 -0.021115,-0.01 -0.03215,-0.01 -0.015802,-2e-4 -0.031589,0.01 -0.0428,0.017 -0.011211,0.011 -0.017701,0.027 -0.017595,0.043 -0.00115,-0.01 -0.0049,-0.014 -0.010374,-0.018 -0.00548,-0 -0.012635,-0.01 -0.019824,-0.01 -0.00719,0 -0.014348,0 -0.019824,0.01 -0.00548,0 -0.00922,0.011 -0.010374,0.018 -8.257e-4,0.01 -3.536e-4,0.01 5.919e-4,0.015 9.454e-4,0.01 0.00236,0.01 0.00343,0.015 0.00108,0.01 0.00182,0.01 0.00138,0.015 -4.302e-4,0.01 -0.0021,0.01 -0.00541,0.014 -0.00342,0 -0.0084,0.01 -0.013598,0.01 -0.0052,0 -0.01062,8e-4 -0.015857,-10e-5 -0.010475,-0 -0.020392,-0.01 -0.03094,-0.01 -0.016228,-0 -0.033306,0 -0.044917,0.015 -0.011611,0.012 -0.017496,0.029 -0.015478,0.045 -4.41e-4,-0.01 -0.00389,-0.015 -0.00944,-0.02 -0.00555,-0.01 -0.013134,-0.01 -0.020761,-0.01 -0.00763,0 -0.015214,0 -0.020761,0.01 -0.00555,0.01 -0.009,0.013 -0.00944,0.02 -3.066e-4,0.01 7.828e-4,0.011 0.00225,0.016 0.00147,0.01 0.00332,0.01 0.00459,0.015 0.00127,0.01 0.00196,0.01 0.00106,0.016 -9.041e-4,0.01 -0.00355,0.01 -0.00789,0.013 -0.00432,0 -0.00989,0 -0.015126,0 -0.00523,-6e-4 -0.010245,-0 -0.015226,-0 -0.00498,-0 -0.010063,-0 -0.015324,-0 -0.00263,-2e-4 -0.00529,10e-5 -0.00782,8e-4 -0.00253,7e-4 -0.00494,0 -0.0069,0 -0.00195,0 -0.00343,0 -0.00441,0.01 -9.813e-4,0 -0.00147,0 -0.00158,0.01 -2.237e-4,0.01 0.00104,0.01 0.00258,0.015 0.00154,0.01 0.00338,0.01 0.00434,0.015 9.671e-4,0.01 0.00102,0.011 -9.321e-4,0.015 -0.00216,0.01 -0.00671,0.01 -0.012017,0.012 -0.0053,0 -0.011301,0 -0.017048,0 -0.011494,-0 -0.021648,-0.01 -0.031397,-0.014 -0.00975,-0.01 -0.019935,-0.013 -0.03144,-0.014 -0.00575,-7e-4 -0.011748,-10e-5 -0.017025,0 -0.00528,0 -0.00978,0.01 -0.011862,0.012 -0.00189,0 -0.00174,0.01 -6.89e-4,0.015 0.00105,0.01 0.00296,0.01 0.00454,0.015 0.00158,0 0.00285,0.01 0.00255,0.015 -1.484e-4,0 -6.937e-4,0.01 -0.00175,0.01 -0.00105,0 -0.00262,0 -0.00465,0.01 -0.00205,0 -0.00455,0 -0.00714,0 -0.00259,6e-4 -0.00529,6e-4 -0.00793,3e-4 -0.00528,-6e-4 -0.010296,-0 -0.015266,-0 -0.00497,-0 -0.010049,-0 -0.015352,-0 -0.00265,-10e-5 -0.00534,10e-5 -0.00789,8e-4 -0.00254,8e-4 -0.00494,0 -0.00682,0 -0.00187,0 -0.00319,0 -0.00397,0.01 -7.761e-4,0 -0.00101,0.01 -8.705e-4,0.01 2.875e-4,0.01 0.00207,0.01 0.0039,0.015 0.00184,0.01 0.00377,0.01 0.00439,0.015 3.097e-4,0 2.834e-4,0.01 -2.506e-4,0.01 -5.34e-4,0 -0.00159,0.01 -0.0032,0.01 -0.00163,0 -0.0038,0 -0.0062,0 -0.0024,0 -0.00502,0 -0.00766,0 -0.00528,5e-4 -0.010565,-7e-4 -0.015634,-0 -0.00507,-0 -0.01003,-0 -0.0152,-0 -0.00517,-0 -0.010657,-0 -0.015709,10e-5 -0.00534,0 -0.00989,0.01 -0.012869,0.01 -0.00298,0 -0.00444,0.01 -0.00464,0.016 -4.093e-4,0.011 0.00402,0.022 0.00907,0.032 0.00506,0.01 0.010881,0.02 0.013642,0.031 0.00138,0.01 0.00197,0.011 0.00123,0.017 -7.38e-4,0.01 -0.00284,0.011 -0.00643,0.015 -0.00345,0 -0.00817,0.01 -0.013276,0.01 -0.0051,0 -0.010578,0 -0.015953,0 -0.010749,-8e-4 -0.02093,-0 -0.030839,-0.01 -0.00991,-0 -0.019937,-0.01 -0.030632,-0.01 -0.00535,-7e-4 -0.010829,-6e-4 -0.016052,8e-4 -0.00522,0 -0.010182,0 -0.014038,0.01 -0.00384,0 -0.0065,0.01 -0.00795,0.014 -0.00145,0.01 -0.00172,0.011 -0.00118,0.016 0.00108,0.011 0.00531,0.021 0.00946,0.031 0.00415,0.01 0.00832,0.02 0.00929,0.031 4.812e-4,0.01 1.358e-4,0.011 -0.0014,0.016 -0.00154,0.01 -0.00429,0.01 -0.00822,0.014 -0.00397,0 -0.00903,0.01 -0.014326,0.01 -0.00529,0 -0.010815,0 -0.016176,3e-4 -0.010722,-0 -0.020684,-0.01 -0.030596,-0.011 -0.00991,-0 -0.020201,-0.01 -0.031039,-0.01 -0.00542,-2e-4 -0.010923,5e-4 -0.015962,0 -0.00504,0 -0.0096,0.01 -0.01269,0.01 -0.00292,0 -0.00446,0.01 -0.00498,0.014 -5.177e-4,0.01 -5.39e-5,0.01 7.638e-4,0.015 0.00164,0.01 0.0047,0.02 0.00421,0.03 -5.47e-4,0.012 -0.00576,0.023 -0.01371,0.031 -0.00795,0.01 -0.018499,0.014 -0.029691,0.017 -0.022383,0.01 -0.046362,10e-4 -0.06786,-0.01 -0.021498,-0.01 -0.04142,-0.021 -0.062717,-0.03 -0.021297,-0.01 -0.044865,-0.015 -0.067602,-0.011 -0.014765,0 -0.028629,0.01 -0.039302,0.021 -0.010673,0.011 -0.018113,0.024 -0.021093,0.039 -0.00895,-0.01 -0.019562,-0.01 -0.030198,-0.01 -0.010635,0 -0.021252,0 -0.030197,0.01 -0.012037,0.01 -0.020584,0.02 -0.029237,0.031 -0.00865,0.011 -0.01817,0.023 -0.031158,0.029 -0.00761,0 -0.016079,0.01 -0.024458,0 -0.00838,-10e-5 -0.016679,-0 -0.024664,-0 -0.01597,-0.01 -0.03066,-0.013 -0.046035,-0.02 -0.015375,-0.01 -0.032115,-0.012 -0.048735,-0.01 -0.00831,0 -0.016451,0 -0.023173,0.01 -0.00672,0 -0.011959,0.012 -0.014118,0.02 -0.00261,0.01 -6.876e-4,0.02 9.316e-4,0.03 8.097e-4,0.01 0.00154,0.01 0.00159,0.015 4.44e-5,0.01 -6.198e-4,0.01 -0.00252,0.015 -0.00328,0.01 -0.010181,0.014 -0.018199,0.018 -0.00802,0 -0.017064,0 -0.025707,0 -0.017286,-0 -0.03246,-0.012 -0.047073,-0.022 -0.014614,-0.01 -0.029972,-0.019 -0.04732,-0.021 -0.00867,-0 -0.017707,-10e-5 -0.025577,0 -0.00787,0 -0.014472,0.01 -0.017309,0.019 -0.00164,0 -0.00201,0.01 -0.00171,0.015 2.963e-4,0.01 0.00123,0.01 0.00214,0.015 9.011e-4,0.01 0.00177,0.01 0.00192,0.015 1.529e-4,0.01 -4.32e-4,0.01 -0.00235,0.015 -0.00208,0.01 -0.00569,0.01 -0.01009,0.013 -0.0044,0 -0.00958,0.01 -0.014953,0.01 -0.010741,0 -0.022002,6e-4 -0.032533,-0 -0.01053,-0 -0.020567,-0.01 -0.030939,-0.011 -0.010372,-0 -0.021312,-0.01 -0.032276,-0.01 -0.014663,0 -0.028309,0.01 -0.039094,0.019 -0.010785,0.01 -0.019004,0.022 -0.026483,0.035 -0.00748,0.013 -0.014352,0.026 -0.02296,0.038 -0.00861,0.012 -0.019155,0.023 -0.032252,0.03 -0.018614,0.01 -0.041781,0.01 -0.060395,0 l -0.060395,0.06 c -0.00284,-0.01 -0.00722,-0.01 -0.012516,-0.013 -0.00529,-0 -0.011483,-0 -0.017681,-0 -0.0062,0 -0.012388,0 -0.017681,0 -0.00529,0 -0.00967,0.01 -0.012516,0.013 -0.00489,0.01 -0.00505,0.021 -0.00292,0.031 0.00213,0.01 0.00638,0.02 0.010017,0.03 0.00364,0.01 0.00671,0.021 0.00632,0.031 -1.945e-4,0.01 -0.00127,0.011 -0.00349,0.016 -0.00221,0 -0.00559,0.01 -0.00993,0.012 -0.00455,0 -0.010063,0.01 -0.015634,0.01 -0.00557,5e-4 -0.011205,-2e-4 -0.016601,-0 -0.010791,-0 -0.020557,-0.01 -0.03062,-0.014 -0.010063,-0 -0.020956,-0.01 -0.032119,-0.01 -0.00558,4e-4 -0.011138,0 -0.015806,0.01 -0.00467,0 -0.0084,0.01 -0.010011,0.013 -0.00152,0.01 -0.00113,0.011 2.93e-5,0.016 0.00116,0.01 0.00305,0.01 0.00456,0.015 0.00151,0.01 0.00264,0.01 0.00219,0.015 -2.232e-4,0 -8.453e-4,0.01 -0.00196,0.01 -0.00112,0 -0.00274,0 -0.00481,0.01 -0.00209,0 -0.00459,0 -0.00719,0 -0.0026,5e-4 -0.00529,5e-4 -0.00792,2e-4 -0.00527,-6e-4 -0.010281,-0 -0.015253,-0 -0.00497,-0 -0.010059,-0 -0.015358,-0 -0.00265,-2e-4 -0.00533,0 -0.00787,8e-4 -0.00254,8e-4 -0.00493,0 -0.0068,0 -0.00186,0 -0.00319,0 -0.00397,0.01 -7.804e-4,0 -0.00103,0.01 -8.944e-4,0.01 2.657e-4,0.01 0.00202,0.01 0.00383,0.015 0.00182,0 0.00374,0.01 0.00437,0.015 3.155e-4,0 3.014e-4,0.01 -2.126e-4,0.01 -5.14e-4,0 -0.00154,0.01 -0.00312,0.01 -0.0016,0 -0.00374,0 -0.00612,0 -0.00238,0 -0.00499,0 -0.00763,0 -0.00528,5e-4 -0.010592,-5e-4 -0.015682,-0 -0.00509,-0 -0.010058,-0 -0.015218,-0 -0.00516,-0 -0.010613,-0 -0.015748,-4e-4 -0.00541,0 -0.010204,0 -0.013598,0.01 -0.00339,0 -0.00543,0.01 -0.00623,0.015 -0.00161,0.011 0.0016,0.022 0.00596,0.033 0.00436,0.01 0.00992,0.02 0.013408,0.031 0.00174,0.01 0.00296,0.011 0.00318,0.016 2.221e-4,0.01 -5.732e-4,0.011 -0.00272,0.016 -0.00228,0.01 -0.00605,0.01 -0.010591,0.014 -0.00454,0 -0.00983,0.01 -0.015379,0.01 -0.011099,0 -0.023081,0.01 -0.034891,0.01 -0.01181,0 -0.023797,0 -0.034797,0.01 -0.0055,0 -0.010712,0.01 -0.015117,0.01 -0.0044,0 -0.00798,0.01 -0.010015,0.014 -0.00345,0.01 -0.00225,0.02 -7.544e-4,0.03 0.0015,0.01 0.00324,0.02 7.544e-4,0.03 -0.00178,0.01 -0.00566,0.013 -0.010461,0.019 -0.0048,0.01 -0.010523,0.01 -0.016421,0.014 -0.011795,0.01 -0.024706,0.016 -0.033514,0.027 -0.00726,0.01 -0.011208,0.021 -0.013659,0.033 -0.00245,0.012 -0.00353,0.024 -0.00573,0.035 -0.00221,0.012 -0.00564,0.023 -0.012297,0.033 -0.00333,0 -0.00745,0.01 -0.012315,0.013 -0.00487,0 -0.010493,0.01 -0.016389,0.01 -0.010204,0 -0.020422,-0 -0.03055,-0 -0.00506,-10e-4 -0.010229,-0 -0.015371,-0 -0.00514,4e-4 -0.010289,0 -0.014474,0 -0.00458,0 -0.00779,0.01 -0.00939,0.014 -0.0016,0.01 -0.00165,0.011 -6.625e-4,0.017 0.00197,0.011 0.00787,0.021 0.013396,0.031 0.00552,0.01 0.01088,0.02 0.011572,0.032 3.459e-4,0.01 -5.339e-4,0.011 -0.00303,0.016 -0.0025,0.01 -0.00668,0.01 -0.011884,0.012 -0.00481,0 -0.010235,0 -0.015392,0 -0.00516,-8e-4 -0.01014,-0 -0.015158,-0 -0.00502,-0 -0.010162,-0 -0.015377,-0 -0.00521,0 -0.010563,0 -0.014468,0.01 -0.00391,0 -0.00605,0.01 -0.00664,0.014 -5.912e-4,0.01 2.435e-4,0.011 0.00151,0.015 0.00127,0.01 0.00296,0.01 0.00414,0.015 0.00118,0 0.00184,0.01 9.891e-4,0.015 -0.00119,0.01 -0.00527,0.014 -0.010422,0.019 -0.00515,0.01 -0.011361,0.01 -0.01763,0.013 -0.00627,0 -0.01268,0.01 -0.018449,0.012 -0.00577,0 -0.01093,0.01 -0.013895,0.017 -0.00227,0.01 -0.00318,0.011 -0.00305,0.016 1.236e-4,0.01 0.00126,0.011 0.00294,0.016 0.00336,0.011 0.00884,0.02 0.013206,0.031 0.00436,0.01 0.00764,0.021 0.00619,0.032 -7.232e-4,0.01 -0.00266,0.011 -0.00595,0.015 -0.00329,0 -0.00798,0.01 -0.013333,0.01 -0.00506,0 -0.010481,0 -0.015632,0 -0.00515,-0 -0.010121,-0 -0.015186,-0 -0.00507,-0 -0.010318,-0 -0.015565,-0 -0.00525,4e-4 -0.010533,0 -0.014012,0.01 -0.00339,0 -0.00476,0.01 -0.00492,0.014 -1.537e-4,0.01 7.805e-4,0.01 0.00175,0.015 0.00195,0.01 0.00316,0.02 0.00316,0.031 l 0,0.4831 0,0.5436 0,0.06 c 0,0.01 -0.00111,0.02 -0.00289,0.03 -8.895e-4,0.01 -0.00174,0.01 -0.00161,0.015 1.363e-4,0.01 0.00137,0.01 0.0045,0.014 0.00326,0 0.00834,0.01 0.013568,0.01 0.00523,9e-4 0.010628,3e-4 0.01581,-9e-4 0.010365,-0 0.020393,-0.01 0.031016,-0.01 0.00613,10e-5 0.01219,0 0.017508,0 0.00532,0 0.00989,0.01 0.013422,0.012 0.00706,0.01 0.00981,0.023 0.00899,0.035 -8.209e-4,0.012 -0.00502,0.024 -0.010796,0.035 -0.00577,0.011 -0.013106,0.021 -0.020589,0.03 -0.014967,0.019 -0.031129,0.039 -0.036405,0.063 -0.00264,0.012 -0.00232,0.025 0.00233,0.036 0.00465,0.011 0.013901,0.021 0.02554,0.025 0.00963,0 0.020077,0 0.030135,10e-4 0.010057,-0 0.020298,-0 0.03026,-10e-4 0.00772,0 0.015013,0.01 0.021093,0.01 0.00608,0.01 0.010959,0.011 0.014396,0.018 0.00687,0.014 0.00786,0.031 0.00466,0.046 -0.0032,0.015 -0.010369,0.03 -0.019091,0.043 -0.00872,0.013 -0.01901,0.025 -0.029099,0.037 -0.010089,0.012 -0.020049,0.024 -0.02801,0.038 -0.00796,0.014 -0.013902,0.028 -0.015326,0.044 -0.00142,0.016 0.00195,0.032 0.011135,0.045 0.00459,0.01 0.010588,0.012 0.017537,0.015 0.00695,0 0.014853,0.01 0.022706,0.01 0.010576,-4e-4 0.020545,-0 0.030929,-0.01 0.00519,-10e-4 0.010569,-0 0.015775,-5e-4 0.00521,9e-4 0.010247,0 0.013691,0.01 0.00336,0 0.00501,0.01 0.00537,0.014 3.6e-4,0.01 -4.859e-4,0.01 -0.00164,0.015 -0.00116,0.01 -0.00262,0.01 -0.00354,0.015 -9.162e-4,0.01 -0.00127,0.01 -1.847e-4,0.015 0.00153,0.01 0.00586,0.013 0.011169,0.018 0.00531,0.01 0.011576,0.01 0.017859,0.013 0.00628,0 0.012664,0.01 0.018303,0.012 0.00564,0 0.010561,0.01 0.013064,0.017 0.00174,0 0.00226,0.01 0.00211,0.015 -1.464e-4,0.01 -9.408e-4,0.01 -0.00176,0.015 -0.00164,0.01 -0.00338,0.02 -3.467e-4,0.03 0.00217,0.01 0.00667,0.013 0.011983,0.018 0.00531,0 0.011442,0.01 0.017572,0.013 0.00613,0 0.012325,0.01 0.017823,0.012 0.0055,0 0.01032,0.01 0.013017,0.017 0.00376,0.01 0.00311,0.02 0.00181,0.03 -0.00131,0.01 -0.00322,0.02 -0.00181,0.03 0.00209,0.015 0.011308,0.028 0.022673,0.037 0.011365,0.01 0.02484,0.016 0.03815,0.023 0.01331,0.01 0.026754,0.013 0.038,0.023 0.011246,0.01 0.020243,0.023 0.021967,0.038 0.0013,0.011 -0.00159,0.022 -0.00562,0.033 -0.00403,0.01 -0.00922,0.02 -0.012827,0.031 -0.00361,0.011 -0.0056,0.022 -0.00299,0.033 0.00131,0.01 0.00377,0.011 0.00744,0.015 0.00367,0 0.00856,0.01 0.013993,0.01 0.00506,0 0.010404,10e-4 0.015532,0 0.00513,-10e-4 0.010109,-0 0.015168,-0 0.00506,-0 0.01027,-0 0.015477,-0 0.00521,4e-4 0.010452,0 0.014219,0.01 0.00376,0 0.00576,0.01 0.00631,0.014 5.433e-4,0.01 -2.703e-4,0.01 -0.00149,0.015 -0.00122,0.01 -0.00284,0.01 -0.00396,0.015 -0.00112,0.01 -0.00172,0.01 -8.632e-4,0.015 0.0012,0.01 0.0052,0.014 0.010286,0.019 0.00508,0.01 0.011219,0.01 0.01744,0.013 0.00622,0 0.012601,0.01 0.018395,0.012 0.00579,0 0.011041,0.01 0.014274,0.016 0.00475,0.01 0.00475,0.021 0.0025,0.031 -0.00225,0.01 -0.00658,0.02 -0.010237,0.03 -0.00366,0.01 -0.0067,0.021 -0.0062,0.031 2.514e-4,0.01 0.00141,0.011 0.00371,0.016 0.00231,0 0.00579,0.01 0.010222,0.012 0.00427,0 0.00932,0 0.014441,0.01 0.00512,7e-4 0.010311,4e-4 0.015417,-4e-4 0.010213,-0 0.020231,-0 0.030537,-0 0.015871,-5e-4 0.031836,0.01 0.043101,0.017 0.011265,0.011 0.01767,0.027 0.017294,0.043 0.00319,-0.01 0.00769,-0.01 0.012939,-0.012 0.00525,-0 0.011253,-0 0.017258,-0 0.00601,0 0.012004,0 0.017258,0 0.00525,0 0.00975,0.01 0.012939,0.012 0.00554,0.01 0.00694,0.02 0.00596,0.03 -9.838e-4,0.01 -0.00418,0.02 -0.00724,0.03 -0.00307,0.01 -0.00605,0.02 -0.00658,0.03 -5.362e-4,0.011 0.00159,0.021 0.00787,0.03 0.0064,0.01 0.016604,0.014 0.02709,0.015 0.010487,0 0.021275,5e-4 0.031622,-0 0.010347,-0 0.02039,-0.01 0.030633,-0.01 0.010243,-0 0.020824,-0 0.031444,-0 0.015523,8e-4 0.030679,0.01 0.041705,0.018 0.011026,0.011 0.017818,0.026 0.01869,0.042 0.053716,0.049 0.115067,0.09 0.1811847,0.1208 0.040856,0.019 0.083886,0.034 0.1207898,0.06 0.02337,0.016 0.043899,0.037 0.060395,0.06 5.389e-4,-0.01 0.00403,-0.015 0.00957,-0.02 0.00554,-0.01 0.013065,-0.01 0.020631,-0.01 0.00757,0 0.015093,0 0.020631,0.01 0.00554,0.01 0.00903,0.013 0.00957,0.02 3.76e-4,0.01 -6.303e-4,0.011 -0.00203,0.016 -0.0014,0.01 -0.00319,0.01 -0.00443,0.015 -0.00125,0.01 -0.00194,0.011 -0.0011,0.016 8.38e-4,0.01 0.00335,0.01 0.00756,0.013 0.00418,0 0.00966,0 0.014882,0 0.00522,-3e-4 0.010275,-0 0.015261,-0 0.00499,-0 0.010015,-0 0.015227,-0 0.00521,-5e-4 0.010706,3e-4 0.015024,0 0.0044,0 0.00719,0.01 0.00828,0.013 0.00109,0.01 6.022e-4,0.011 -5.521e-4,0.016 -0.00231,0.01 -0.00726,0.02 -0.00773,0.031 -5.42e-4,0.012 0.00535,0.025 0.014503,0.033 0.00916,0.01 0.021298,0.013 0.033623,0.014 0.012325,0 0.024852,-3e-4 0.036832,-0 0.01198,-0 0.023494,-0.01 0.034954,-0.013 0.022921,-0.01 0.046941,-0.019 0.071654,-0.017 0.012357,0 0.024617,0.01 0.034078,0.013 0.00946,0.01 0.015862,0.02 0.015935,0.032 6.15e-5,0.011 -0.00419,0.02 -0.00629,0.031 -0.00105,0.01 -0.00157,0.01 -7.261e-4,0.016 8.405e-4,0.01 0.00313,0.01 0.00701,0.014 0.00386,0 0.00906,0.01 0.014247,0.01 0.00519,4e-4 0.010397,-4e-4 0.015467,-0 0.00507,-0 0.010062,-0 0.015172,-0 0.00511,-10e-4 0.010402,-0 0.015509,-4e-4 0.00593,0 0.011407,0 0.015791,0.01 0.00438,0 0.00771,0.01 0.010069,0.015 0.00473,0.011 0.00563,0.024 0.00626,0.035 6.279e-4,0.012 0.00107,0.024 0.00497,0.036 0.00195,0.01 0.00478,0.011 0.00868,0.016 0.0039,0 0.00892,0.01 0.014618,0.01 0.0048,0 0.00998,0 0.015065,0 0.00509,-2e-4 0.010121,-0 0.015139,-0 0.00502,-9e-4 0.010055,-0 0.015144,-0 0.00509,-2e-4 0.010262,3e-4 0.015047,0 0.00571,0 0.010697,0.01 0.014537,0.011 0.00384,0 0.00657,0.01 0.00841,0.016 0.00368,0.012 0.00387,0.024 0.00436,0.036 4.882e-4,0.012 0.00138,0.024 0.00632,0.036 0.00247,0.01 0.00595,0.011 0.010514,0.015 0.00456,0 0.010236,0.01 0.016263,0.01 0.00528,7e-4 0.010638,-2e-4 0.015776,-0 0.00514,-0 0.010133,-0 0.015278,-0 0.00514,-0 0.010522,-0 0.015786,-0 0.00526,8e-4 0.010431,0 0.013555,0.01 0.00307,0 0.00389,0.01 0.00336,0.015 -5.305e-4,0.01 -0.00229,0.01 -0.00399,0.015 -0.0017,0.01 -0.00336,0.01 -0.00367,0.015 -1.549e-4,0 3.48e-5,0.01 7.176e-4,0.01 6.827e-4,0 0.00187,0 0.00358,0.01 0.00172,0 0.00396,0 0.00639,0 0.00243,10e-4 0.00505,0 0.00769,0 0.00527,2e-4 0.010497,-10e-4 0.01554,-0 0.00504,-0 0.010006,-0 0.015179,-0 0.00517,-10e-4 0.010665,-0 0.015604,7e-4 0.00532,0 0.00965,0.01 0.01224,0.011 0.00258,0.01 0.00349,0.011 0.00313,0.017 -7.327e-4,0.011 -0.00631,0.022 -0.012035,0.032 -0.00573,0.01 -0.011846,0.02 -0.013866,0.031 -0.00101,0.01 -9.391e-4,0.011 7.456e-4,0.017 0.00168,0.01 0.00506,0.011 0.00979,0.014 0.00428,0 0.00949,0 0.014629,0 0.00514,10e-5 0.010265,-7e-4 0.0153,-0 0.00504,-10e-4 0.010035,-0 0.015134,-0 0.0051,-7e-4 0.010348,-8e-4 0.015332,5e-4 0.00586,0 0.011167,0 0.015347,0.01 0.00418,0 0.00727,0.01 0.00942,0.015 0.0043,0.011 0.00489,0.024 0.00543,0.036 5.392e-4,0.012 0.00113,0.024 0.00543,0.036 0.00215,0.01 0.00524,0.011 0.00942,0.015 0.00418,0 0.00948,0.01 0.015347,0.01 0.00498,0 0.010234,0 0.015332,5e-4 0.0051,-7e-4 0.010098,-0 0.015134,-0 0.00504,-0 0.010158,-0 0.0153,-0 0.00514,2e-4 0.010345,0 0.014629,0 0.00473,0 0.0081,0.01 0.00979,0.014 0.00168,0.01 0.00175,0.011 7.432e-4,0.017 -0.00202,0.011 -0.00814,0.021 -0.01387,0.031 -0.00573,0.01 -0.011304,0.02 -0.012035,0.031 -3.657e-4,0.01 5.456e-4,0.012 0.00313,0.017 0.00259,0.01 0.00692,0.01 0.012245,0.011 0.00494,0 0.010433,0 0.015607,7e-4 0.00517,-0 0.010136,-0 0.01518,-0 0.00504,-0 0.010275,-0 0.015542,-0 0.00263,2e-4 0.00526,7e-4 0.00769,0 0.00243,0 0.00466,0 0.00638,0 0.00171,0 0.00289,0 0.00357,0.01 6.774e-4,0 8.61e-4,0.01 7.002e-4,0.01 -3.217e-4,0.01 -0.00199,0.01 -0.0037,0.015 -0.0017,0 -0.00347,0.01 -0.00399,0.015 -5.217e-4,0.01 3.22e-4,0.011 0.00342,0.015 0.00157,0 0.00368,0 0.00603,0.01 0.00235,0 0.00494,0 0.00757,0 0.00526,7e-4 0.010629,-2e-4 0.015763,-0 0.00513,-0 0.010124,-0 0.015264,-0 0.00514,-0 0.010516,-0 0.015771,-0 0.00607,9e-4 0.011722,0 0.016156,0.01 0.00443,0 0.00769,0.01 0.00989,0.015 0.0044,0.011 0.00462,0.024 0.00471,0.036 9.35e-5,0.012 1.677e-4,0.025 0.00432,0.036 0.00208,0.01 0.00518,0.011 0.00948,0.016 0.00429,0 0.00981,0.01 0.015841,0.01 0.00514,10e-4 0.010473,5e-4 0.015595,-6e-4 0.00512,-0 0.010109,-0 0.015194,-0 0.00508,-0 0.010339,-0 0.015553,-0 0.00521,5e-4 0.010424,0 0.014053,0.01 0.00359,0 0.00537,0.01 0.00572,0.014 3.54e-4,0.01 -6.081e-4,0.01 -0.00189,0.015 -0.00128,0.01 -0.00288,0.01 -0.00385,0.015 -9.678e-4,0.01 -0.00128,0.01 1.5e-5,0.015 0.0014,0.01 0.00467,0.01 0.00894,0.014 0.00427,0 0.0095,0.01 0.014966,0.01 0.010922,0 0.022415,3e-4 0.032989,-0 0.010574,-0 0.020554,-0.01 0.031034,-0.013 0.01048,-0 0.021782,-0.01 0.032857,-0.01 0.00744,0 0.014513,0 0.020705,0.01 0.00619,0 0.011521,0.01 0.016072,0.016 0.0091,0.012 0.015062,0.026 0.021267,0.04 0.00621,0.014 0.012896,0.027 0.023117,0.039 0.00511,0.01 0.011085,0.01 0.017831,0.014 0.00675,0 0.014283,0.01 0.021796,0 0.010649,-5e-4 0.020608,-0.01 0.031038,-0.01 0.00522,-0 0.010643,-0 0.015872,-5e-4 0.00523,10e-4 0.010261,0 0.013484,0.01 0.00312,0 0.00434,0.01 0.00429,0.015 -4.5e-5,0.01 -0.00127,0.01 -0.00262,0.015 -0.00135,0 -0.00285,0.01 -0.00348,0.015 -6.231e-4,0.01 -3.241e-4,0.01 0.0018,0.015 0.00233,0.01 0.00678,0.01 0.011926,0.012 0.00515,0 0.010958,0 0.016594,0 0.011272,-10e-4 0.021545,-0.01 0.031351,-0.012 0.00981,-0.01 0.019832,-0.012 0.03102,-0.013 0.00559,-8e-4 0.011418,-6e-4 0.016763,0 0.00535,0 0.010183,0.01 0.013135,0.01 0.00266,0 0.0037,0.01 0.00371,0.015 8.7e-6,0.01 -9.595e-4,0.01 -0.00206,0.015 -0.0011,0 -0.00234,0.01 -0.0029,0.015 -5.54e-4,0.01 -3.966e-4,0.01 0.00125,0.015 0.00178,0.01 0.00528,0.01 0.00967,0.013 0.00438,0 0.00962,0.01 0.015045,0.01 0.010848,0 0.022145,0 0.032623,-0 0.010479,-0 0.020438,-0.01 0.030881,-0.012 0.010442,-0 0.021664,-0.01 0.032574,-0 0.00743,0 0.014459,0 0.020589,0.01 0.00613,0 0.011382,0.01 0.01586,0.016 0.00895,0.012 0.014787,0.026 0.020963,0.04 0.00618,0.014 0.012942,0.028 0.023324,0.039 0.00519,0.01 0.011265,0.01 0.018098,0.013 0.00683,0 0.014444,0 0.021956,0 0.010785,-8e-4 0.020695,-0.01 0.031251,-0.01 0.00528,-0 0.010817,-0 0.016085,-4e-4 0.00527,0 0.010254,0 0.013059,0.01 0.00272,0 0.00319,0.01 0.00243,0.015 -7.534e-4,0.01 -0.00263,0.01 -0.00433,0.015 -0.00171,0 -0.00327,0.01 -0.00335,0.015 -4.19e-5,0 2.931e-4,0.01 0.00114,0.01 8.5e-4,0 0.00223,0 0.00411,0.01 0.0019,0 0.00428,0 0.00681,0 0.00253,8e-4 0.0052,10e-4 0.00784,9e-4 0.00528,-3e-4 0.010374,-0 0.015352,-0 0.00498,-0 0.00998,-0 0.015233,-0 0.00263,-4e-4 0.0053,-3e-4 0.0079,2e-4 0.0026,5e-4 0.00511,0 0.00726,0 0.00214,0 0.00387,0 0.00511,0.01 0.00124,0 0.00201,0 0.00238,0.01 7.325e-4,0.01 -1.265e-4,0.011 -0.00149,0.016 -0.00137,0.01 -0.00324,0.01 -0.00459,0.015 -0.00135,0.01 -0.00218,0.011 -0.00141,0.016 8.465e-4,0.01 0.00362,0.011 0.00756,0.015 0.00394,0 0.00902,0.01 0.01447,0.01 0.010909,0 0.02299,0 0.034059,-6e-4 0.011069,-0 0.021391,-0.01 0.031868,-0.013 0.010477,-0 0.021358,-0.01 0.032833,-0.01 0.015124,-0 0.030543,0 0.043711,0.01 0.013168,0.01 0.024197,0.019 0.03331,0.031 0.018225,0.024 0.028928,0.053 0.043769,0.08 0.00771,0.014 0.016672,0.027 0.028311,0.038 0.011639,0.011 0.026175,0.019 0.041867,0.02 0.00785,9e-4 0.015902,3e-4 0.023426,-0 0.00752,-0 0.014501,-0.01 0.019926,-0.012 0.00543,-0.01 0.00926,-0.013 0.010647,-0.021 0.00139,-0.01 2.694e-4,-0.016 -0.00339,-0.023 -0.00286,-0.01 -0.00725,-0.01 -0.012543,-0.013 -0.00529,-0 -0.011468,-0 -0.017655,-0 -0.00619,0 -0.012364,0 -0.017655,0 -0.00529,0 -0.00968,0.01 -0.012543,0.013 l 0.1811847,0.2416 -6.6e-5,0 z"
       style="fill:#b3b3b3;fill-rule:evenodd;stroke:#000000;stroke-width:1px;stroke-linecap:butt;stroke-linejoin:miter;stroke-opacity:1" />
    <path
       id="path3380"
       d="m 7.3329592,1041.0354 -0.1309457,0.2619 c -0.00732,-0.01 -0.01994,-0.017 -0.032736,-0.017 -0.012796,0 -0.025418,0.01 -0.032737,0.017 -0.00643,0.01 -0.00869,0.021 -0.00832,0.032 3.732e-4,0.011 0.0032,0.022 0.00619,0.033 0.00299,0.011 0.00617,0.022 0.00728,0.033 0.00111,0.011 2.09e-5,0.023 -0.00515,0.033 -0.00359,0.01 -0.00901,0.013 -0.015001,0.018 -0.00599,0.01 -0.012586,0.01 -0.01908,0.014 -0.00649,0 -0.012939,0.01 -0.018536,0.014 -0.0056,0.01 -0.010351,0.012 -0.012855,0.019 -0.00389,0.012 -0.00206,0.024 0.00187,0.036 0.00393,0.011 0.00986,0.022 0.014394,0.033 0.00453,0.011 0.00769,0.024 0.00568,0.035 -0.00101,0.01 -0.00333,0.012 -0.00709,0.017 -0.00376,0 -0.00898,0.01 -0.014855,0.01 -0.00555,0 -0.011436,9e-4 -0.017021,-4e-4 -0.00558,-0 -0.010974,-0 -0.016485,-0 -0.00551,-0 -0.011248,-0 -0.016952,-0 -0.00285,3e-4 -0.00568,10e-4 -0.00827,0 -0.00259,0 -0.00495,0 -0.00675,0.01 -0.00356,0 -0.00471,0.01 -0.00432,0.016 3.918e-4,0.01 0.00219,0.011 0.004,0.016 0.00181,0.01 0.00366,0.011 0.00416,0.016 5.047e-4,0.01 -4.666e-4,0.012 -0.00384,0.016 -0.00344,0 -0.00905,0.01 -0.014754,0.01 -0.0057,8e-4 -0.011517,-2e-4 -0.017083,-0 -0.00557,-0 -0.010979,-0 -0.016548,-0 -0.00557,-0 -0.011389,-0 -0.017087,-0 -0.00489,7e-4 -0.00957,0 -0.013576,0.01 -0.00401,0 -0.00734,0.01 -0.00982,0.011 -0.00497,0.01 -0.00647,0.019 -0.00529,0.029 0.00118,0.01 0.00489,0.019 0.00973,0.028 0.00484,0.01 0.010794,0.017 0.016776,0.024 0.011965,0.016 0.024507,0.032 0.027779,0.052 0.00164,0.01 7.547e-4,0.02 -0.0036,0.029 -0.00218,0 -0.00521,0.01 -0.00896,0.012 -0.00375,0 -0.00824,0.01 -0.013037,0.01 -0.00545,0 -0.011185,0 -0.016724,2e-4 -0.00554,-10e-4 -0.01095,-0 -0.016423,-0 -0.00547,-0 -0.011071,-0 -0.016675,-0 -0.0056,3e-4 -0.011258,0 -0.015652,0.01 -0.0045,0 -0.00742,0.01 -0.00872,0.014 -0.0013,0.01 -0.00107,0.011 -8.17e-5,0.017 0.00198,0.011 0.00694,0.022 0.0088,0.033 0.00331,0.02 -0.00359,0.041 -0.015008,0.058 -0.01142,0.017 -0.027073,0.031 -0.042979,0.044 -0.015906,0.013 -0.032357,0.025 -0.046026,0.041 -0.013669,0.015 -0.024564,0.034 -0.026933,0.054 -0.00212,0.018 0.00267,0.037 0.00932,0.053 0.00665,0.017 0.015205,0.033 0.021151,0.051 0.00595,0.017 0.00921,0.036 0.00487,0.054 -0.00217,0.01 -0.00626,0.017 -0.012319,0.024 -0.00606,0.01 -0.014117,0.012 -0.023021,0.014 -0.010723,0 -0.021919,6e-4 -0.032815,-0 -0.010896,-0 -0.022351,-0 -0.032658,0 -0.00655,0 -0.012325,0.01 -0.01631,0.013 -0.00398,0.01 -0.00617,0.013 -0.00617,0.02 0,0.01 0.00218,0.014 0.00617,0.02 0.00398,0.01 0.00976,0.01 0.01631,0.013 1.509e-4,0.051 -0.024886,0.1007 -0.065473,0.131 -0.012654,0.01 -0.026649,0.017 -0.038971,0.027 -0.00616,0 -0.011902,0.01 -0.01658,0.017 -0.00468,0.01 -0.00827,0.014 -0.00992,0.021 -0.00246,0.012 -4.864e-4,0.024 0.00299,0.035 0.00347,0.011 0.00841,0.022 0.012077,0.033 0.00366,0.011 0.00605,0.023 0.00418,0.035 -9.351e-4,0.01 -0.00295,0.012 -0.00619,0.016 -0.00324,0 -0.00773,0.01 -0.013054,0.012 -0.00499,0 -0.010589,0 -0.01612,0 -0.00553,10e-5 -0.01103,-8e-4 -0.016478,-0 -0.010897,-0 -0.022158,-0 -0.032875,-0 -0.00883,0 -0.016602,0.01 -0.021956,0.015 -0.00535,0.01 -0.00837,0.016 -0.00932,0.025 -0.0019,0.018 0.0042,0.036 0.011873,0.053 0.00767,0.016 0.017035,0.032 0.022345,0.05 0.00266,0.01 0.00427,0.018 0.00402,0.027 -2.53e-4,0.01 -0.00242,0.018 -0.00696,0.026 -0.00782,0.014 -0.021744,0.022 -0.034678,0.031 -0.00647,0 -0.012847,0.01 -0.018339,0.015 -0.00549,0.01 -0.010098,0.012 -0.012456,0.02 -0.00363,0.011 -0.00168,0.024 0.00226,0.036 0.00395,0.012 0.0098,0.022 0.01425,0.033 0.00445,0.011 0.00749,0.024 0.00541,0.035 -0.00104,0.01 -0.00338,0.012 -0.00713,0.016 -0.00375,0 -0.00895,0.01 -0.0148,0.01 -0.00552,0 -0.011383,10e-4 -0.016962,-2e-4 -0.00558,-0 -0.01097,-0 -0.01647,-0 -0.0055,-0 -0.011206,-0 -0.016893,-0 -0.00569,5e-4 -0.011399,0 -0.015149,0.01 -0.00365,0 -0.00512,0.01 -0.00529,0.015 -1.648e-4,0.01 8.398e-4,0.011 0.00189,0.017 0.00209,0.011 0.0034,0.022 0.0034,0.033 l 0,0.066"
       style="fill:none;fill-rule:evenodd;stroke:#000000;stroke-width:1px;stroke-linecap:butt;stroke-linejoin:miter;stroke-opacity:1" />
    <path
       id="path3384"
       d="m 5.8925565,1044.309 c -0.074607,0.1376 -0.1898124,0.2528 -0.3273642,0.3274 -0.014046,0.01 -0.028445,0.015 -0.04069,0.025 -0.012245,0.01 -0.022346,0.024 -0.024783,0.04 -0.00182,0.012 7.255e-4,0.024 0.00459,0.035 0.00386,0.011 0.00903,0.022 0.012734,0.033 0.0037,0.011 0.00591,0.024 0.0036,0.035 -0.00115,0.01 -0.00345,0.012 -0.007,0.016 -0.00354,0 -0.00836,0.01 -0.013923,0.011 -0.00517,0 -0.010839,0 -0.016372,0 -0.00553,-4e-4 -0.010981,-0 -0.016417,-0 -0.00544,-0 -0.010908,-0 -0.01645,-0 -0.00554,-10e-5 -0.0112,6e-4 -0.016235,0 -0.00537,0 -0.00984,0.01 -0.012943,0.012 -0.0031,0.01 -0.00487,0.011 -0.0055,0.017 -0.00126,0.012 0.00192,0.024 0.00612,0.034 0.0042,0.011 0.00945,0.022 0.012616,0.033 0.00317,0.011 0.00412,0.024 -2.898e-4,0.035 -0.00237,0.01 -0.00622,0.011 -0.010886,0.016 -0.00467,0 -0.010136,0.01 -0.015927,0.01 -0.011583,0.01 -0.024301,0.01 -0.036884,0.01 -0.012584,0 -0.025317,0 -0.037294,0.01 -0.011977,0 -0.023332,0.011 -0.029954,0.022 -0.00586,0.01 -0.00757,0.021 -0.00685,0.033 7.199e-4,0.011 0.00372,0.022 0.00671,0.033 0.00299,0.011 0.00601,0.022 0.00678,0.033 7.681e-4,0.011 -8.688e-4,0.023 -0.00664,0.033 -0.00405,0.01 -0.00996,0.012 -0.016345,0.017 -0.00638,0 -0.013282,0.01 -0.019966,0.013 -0.00668,0 -0.013217,0.01 -0.018561,0.015 -0.00534,0.01 -0.00947,0.013 -0.010601,0.021 -8.095e-4,0.01 -6.92e-5,0.011 0.00119,0.017 0.00126,0.01 0.00305,0.011 0.00436,0.016 0.00132,0.01 0.00216,0.011 0.00151,0.017 -6.498e-4,0.01 -0.00292,0.011 -0.00707,0.015 -0.00415,0 -0.00987,0.01 -0.015519,0.01 -0.00564,3e-4 -0.011265,-8e-4 -0.016732,-0 -0.00547,-0 -0.010866,-0 -0.016433,-0 -0.00557,-10e-4 -0.011387,-0 -0.016789,5e-4 -0.00575,0 -0.010784,0.01 -0.014364,0.01 -0.00358,0 -0.00575,0.011 -0.00665,0.017 -0.0018,0.012 0.00139,0.024 0.00584,0.035 0.00446,0.011 0.010212,0.022 0.013935,0.033 0.00372,0.011 0.0053,0.024 0.00124,0.035 -0.00215,0.01 -0.0058,0.011 -0.010315,0.016 -0.00451,0 -0.00988,0.01 -0.015591,0.011 -0.011431,0.01 -0.024118,0.01 -0.036687,0.01 -0.01257,0 -0.025291,0 -0.037366,0.01 -0.012075,0 -0.023659,0.011 -0.030985,0.021 -0.0053,0.01 -0.00812,0.017 -0.00878,0.026 -6.661e-4,0.01 7.514e-4,0.018 0.00336,0.027 0.00522,0.018 0.015065,0.034 0.023315,0.05 0.00825,0.016 0.015097,0.034 0.013576,0.053 -7.609e-4,0.01 -0.00369,0.018 -0.0091,0.026 -0.00541,0.01 -0.013382,0.013 -0.022367,0.015 -0.010877,0 -0.022089,-7e-4 -0.033017,-0 -0.00546,-0 -0.011015,-0 -0.016578,-0 -0.00556,2e-4 -0.011172,0 -0.015878,0 -0.00509,0 -0.00891,0.01 -0.011073,0.014 -0.00216,0.01 -0.00273,0.012 -0.00211,0.018 0.00124,0.012 0.00702,0.023 0.013182,0.033 0.013206,0.022 0.029046,0.044 0.03332,0.069 0.00214,0.013 0.00113,0.026 -0.0045,0.038 -0.00281,0.01 -0.00676,0.011 -0.011687,0.015 -0.00492,0 -0.010832,0.01 -0.017138,0.01 -0.010822,0 -0.022011,-3e-4 -0.032922,-0 -0.00546,-10e-4 -0.010973,-0 -0.016508,-0 -0.00554,10e-5 -0.01112,0 -0.016042,0 -0.00522,0 -0.00954,0.01 -0.012571,0.012 -0.00303,0.01 -0.00481,0.011 -0.00552,0.017 -0.00142,0.012 0.00136,0.023 0.00521,0.034 0.00385,0.011 0.0088,0.022 0.011966,0.033 0.00316,0.011 0.00446,0.024 9.125e-4,0.035 -0.00237,0.01 -0.00683,0.014 -0.012166,0.02 -0.00534,0.01 -0.011555,0.011 -0.017915,0.015 -0.012719,0.01 -0.026455,0.018 -0.035392,0.031 -0.00655,0.01 -0.01014,0.021 -0.01014,0.033 0,0.012 0.00359,0.023 0.01014,0.033 -0.016695,0 -0.032869,0.01 -0.04475,0.02 -0.01188,0.012 -0.01937,0.028 -0.020723,0.045 -0.00154,0.019 0.00457,0.038 0.012495,0.055 0.00792,0.017 0.017732,0.034 0.024345,0.052 0.00661,0.018 0.00987,0.038 0.00418,0.056 -0.00285,0.01 -0.00795,0.017 -0.015106,0.024 -0.00716,0.01 -0.01642,0.01 -0.025916,0.01 -0.011513,2e-4 -0.02239,-0 -0.033623,-0.01 -0.00562,-0 -0.011463,-0 -0.017136,-9e-4 -0.00567,10e-4 -0.011183,0 -0.014714,0.01 -0.00339,0 -0.00473,0.01 -0.00488,0.016 -1.478e-4,0.01 7.784e-4,0.011 0.00174,0.016 0.00193,0.011 0.00313,0.022 0.00313,0.033 l 0,0.066 c 0,0.033 0.00336,0.067 0.00875,0.099 0.0027,0.016 0.00529,0.033 0.00488,0.05 -4.039e-4,0.017 -0.00408,0.034 -0.013634,0.047 -0.00891,0.013 -0.022178,0.022 -0.034658,0.031 -0.01248,0.01 -0.024911,0.02 -0.030815,0.034 -0.00427,0.01 -0.00474,0.022 -0.00336,0.033 0.00138,0.011 0.00454,0.022 0.00736,0.033 0.00282,0.011 0.00531,0.022 0.00532,0.033 6.7e-6,0.011 -0.00266,0.023 -0.00932,0.032 -0.00753,0.01 -0.020055,0.016 -0.032737,0.016 -0.012681,0 -0.025208,-0.01 -0.032736,-0.016 l 0,0.1964"
       style="fill:none;fill-rule:evenodd;stroke:#000000;stroke-width:1px;stroke-linecap:butt;stroke-linejoin:miter;stroke-opacity:1" />
    <path
       id="path3388"
       d="m 4.386681,1048.6302 0,0.5893 0,0.066 c 0,0.011 6.267e-4,0.022 0.00164,0.033 0.00101,0.011 0.00206,0.022 -0.00164,0.032 -0.00266,0.01 -0.00772,0.014 -0.013573,0.019 -0.00586,0.01 -0.012527,0.01 -0.019163,0.014 -0.00664,0 -0.013307,0.01 -0.019163,0.014 -0.00586,0.01 -0.010913,0.012 -0.013573,0.019 -0.0037,0.01 -0.00266,0.021 -0.00164,0.032 0.00101,0.011 0.00164,0.022 0.00164,0.033 l 0,0.066 0,0.3273 0,0.3274 c 0,0.011 0.00114,0.022 0.00296,0.033 9.132e-4,0.01 0.00179,0.011 0.00165,0.017 -1.377e-4,0.01 -0.00139,0.011 -0.00462,0.016 -0.0034,0 -0.00879,0.01 -0.014463,0.01 -0.00567,0 -0.01161,9e-4 -0.017317,-2e-4 -0.011413,-0 -0.022147,-0.01 -0.033693,-0.01 -0.013126,-0 -0.026677,0 -0.037711,0.01 -0.011034,0.01 -0.019582,0.018 -0.024956,0.03 -0.00537,0.012 -0.00765,0.025 -0.00745,0.039 1.957e-4,0.013 0.00282,0.026 0.00688,0.039 0.00813,0.025 0.021903,0.048 0.034627,0.071 0.012725,0.023 0.024669,0.047 0.02861,0.073 0.00388,0.026 -3.784e-4,0.053 -0.012005,0.076 -0.011627,0.023 -0.030573,0.043 -0.053468,0.055"
       style="fill:none;fill-rule:evenodd;stroke:#000000;stroke-width:1px;stroke-linecap:butt;stroke-linejoin:miter;stroke-opacity:1" />
    <path
       id="path3392"
       d="m 10.541129,1041.0354 c -0.04352,0 -0.08594,0.019 -0.122014,0.044 -0.03607,0.025 -0.06572,0.059 -0.08527,0.098 -0.01955,0.039 -0.02896,0.083 -0.02707,0.1268 0.0019,0.044 0.01508,0.087 0.03793,0.1241 0.007,0.011 0.01486,0.022 0.0217,0.034 0.0068,0.012 0.01269,0.024 0.01519,0.037 0.0025,0.013 0.0014,0.027 -0.005,0.039 -0.0032,0.01 -0.0077,0.011 -0.01319,0.015 -0.0055,0 -0.01203,0.01 -0.01871,0.01 -0.0058,3e-4 -0.01153,-9e-4 -0.01709,-0 -0.0056,-0 -0.011,-0 -0.01662,-0.01 -0.0056,-0 -0.01149,-0 -0.01719,-0 -0.0057,10e-4 -0.01123,0 -0.01457,0.01 -0.0033,0 -0.0042,0.011 -0.0037,0.017 5.63e-4,0.01 0.0025,0.011 0.0043,0.017 0.0018,0.01 0.0036,0.011 0.004,0.017 3.41e-4,0.01 -9.12e-4,0.012 -0.0046,0.016 -0.0037,0 -0.0094,0.01 -0.01507,0.01 -0.0057,5e-4 -0.01142,-6e-4 -0.01693,-0 -0.0055,-0 -0.0109,-0 -0.01648,-0 -0.0056,-0 -0.01146,-0 -0.017,-3e-4 -0.0059,0 -0.01108,0.01 -0.01485,0.01 -0.0038,0 -0.0061,0.011 -0.0071,0.016 -0.0021,0.012 10e-4,0.024 0.0055,0.036 0.0045,0.011 0.01037,0.022 0.01432,0.033 0.004,0.011 0.0059,0.024 0.0022,0.036 -0.0024,0.01 -0.007,0.014 -0.01246,0.02 -0.0055,0.01 -0.01184,0.01 -0.01829,0.015 -0.0129,0.01 -0.02678,0.017 -0.03472,0.031 -0.0046,0.01 -0.0069,0.017 -0.0073,0.026 -3.92e-4,0.01 0.0011,0.018 0.0036,0.027 0.005,0.017 0.0141,0.033 0.02163,0.05 0.0075,0.016 0.01361,0.034 0.012,0.052 -8.06e-4,0.01 -0.0036,0.018 -0.0087,0.026 -0.0051,0.01 -0.01256,0.013 -0.02122,0.016 -0.01053,0 -0.02187,0 -0.03275,-2e-4 -0.01089,-0 -0.02228,-0 -0.03272,2e-4 -0.0068,0 -0.01294,0.01 -0.01715,0.013 -0.0042,0.01 -0.0065,0.013 -0.0065,0.02 0,0.01 0.0023,0.014 0.0065,0.02 0.0042,0.01 0.0103,0.01 0.01715,0.013 -0.0022,0.05 -0.02659,0.099 -0.06547,0.1309 -0.01209,0.01 -0.025427,0.018 -0.037444,0.028 -0.012016,0.01 -0.022914,0.022 -0.028029,0.037 -0.00364,0.011 -0.00417,0.022 -0.00317,0.033 9.968e-4,0.011 0.00347,0.022 0.00573,0.033 0.00226,0.011 0.00431,0.022 0.00444,0.033 1.252e-4,0.011 -0.00176,0.022 -0.007,0.032 -0.00732,0.014 -0.020371,0.023 -0.032941,0.032 -0.01257,0.01 -0.025538,0.019 -0.032532,0.033 -0.00411,0.01 -0.0059,0.017 -0.00588,0.026 2.36e-5,0.01 0.00182,0.018 0.00458,0.027 0.00552,0.017 0.014805,0.033 0.022273,0.05 0.00747,0.017 0.013215,0.035 0.010967,0.053 -0.00112,0.01 -0.0043,0.018 -0.00978,0.025 -0.00547,0.01 -0.013312,0.013 -0.022163,0.015 -0.010743,0 -0.021986,2e-4 -0.032886,-0 -0.00545,-10e-4 -0.010953,-0 -0.016484,-0 -0.00553,0 -0.011124,10e-4 -0.016102,0 -0.0053,0 -0.00975,0.01 -0.012946,0.012 -0.0032,0 -0.00516,0.011 -0.00605,0.016 -0.00178,0.012 6.683e-4,0.024 0.00436,0.035 0.00369,0.011 0.00863,0.022 0.012036,0.033 0.00341,0.011 0.00526,0.023 0.0026,0.035 -0.00178,0.01 -0.00552,0.015 -0.010305,0.021 -0.00479,0.01 -0.010602,0.012 -0.016787,0.016 -0.01237,0.01 -0.026273,0.017 -0.03838,0.028 -0.018431,0.015 -0.032236,0.036 -0.040551,0.058 -0.00831,0.023 -0.011236,0.047 -0.00969,0.071 0.00308,0.048 0.023648,0.093 0.050245,0.1329 0.011302,0.017 0.023737,0.033 0.034454,0.05 0.010717,0.017 0.019769,0.036 0.023497,0.056 0.00373,0.02 0.00176,0.042 -0.00839,0.059 -0.00508,0.01 -0.01215,0.017 -0.020723,0.022 -0.00857,0.01 -0.018656,0.01 -0.028835,0.01 -0.011234,10e-5 -0.022115,-0 -0.033199,-0.01 -0.00554,-9e-4 -0.011206,-0 -0.016778,-7e-4 -0.00557,7e-4 -0.011073,0 -0.015496,0.01 -0.00473,0 -0.00805,0.01 -0.00975,0.015 -0.00171,0.01 -0.00186,0.012 -9.724e-4,0.018 0.00178,0.012 0.00757,0.023 0.013079,0.033 0.00551,0.011 0.010914,0.022 0.011813,0.034 4.498e-4,0.01 -2.768e-4,0.012 -0.00261,0.018 -0.00233,0.01 -0.00633,0.01 -0.011558,0.013 -0.0048,0 -0.010423,0 -0.015948,0 -0.00552,10e-5 -0.011029,-7e-4 -0.016502,-0 -0.010946,-0 -0.021971,-0 -0.033023,-0 l -0.065473,0"
       style="fill:none;fill-rule:evenodd;stroke:#000000;stroke-width:1px;stroke-linecap:butt;stroke-linejoin:miter;stroke-opacity:1" />
    <path
       id="path3396"
       d="m 8.9697805,1045.4221 c -0.051814,0.049 -0.08707,0.1151 -0.098787,0.1854 -0.011717,0.07 1.722e-4,0.1443 0.033314,0.2074 0.00567,0.011 0.012056,0.022 0.013733,0.034 8.388e-4,0.01 4.306e-4,0.012 -0.00182,0.018 -0.00225,0.01 -0.00643,0.011 -0.011918,0.013 -0.00509,0 -0.010987,0 -0.016591,0 -0.0056,-8e-4 -0.011014,-0 -0.016441,-0 -0.00543,-0 -0.010973,-0 -0.016625,-0 -0.00565,0 -0.011487,0 -0.015816,0.01 -0.00435,0 -0.00681,0.01 -0.00756,0.015 -7.492e-4,0.01 8.03e-5,0.011 0.00143,0.017 0.00135,0.01 0.00321,0.011 0.00458,0.016 0.00137,0.01 0.00224,0.011 0.00155,0.017 -9.554e-4,0.01 -0.00491,0.015 -0.010141,0.021 -0.00523,0.01 -0.011698,0.011 -0.018358,0.015 -0.00666,0 -0.013572,0.01 -0.020038,0.013 -0.00647,0 -0.012533,0.01 -0.016936,0.016 -0.00508,0.01 -0.00776,0.017 -0.00838,0.026 -6.246e-4,0.01 7.422e-4,0.018 0.00325,0.027 0.00502,0.018 0.014478,0.033 0.022406,0.05 0.00793,0.016 0.014497,0.034 0.013065,0.052 -7.161e-4,0.01 -0.0035,0.018 -0.00869,0.026 -0.00519,0.01 -0.012853,0.013 -0.021654,0.016 -0.010671,0 -0.021961,6e-4 -0.032853,-0 -0.00545,-10e-4 -0.010937,-0 -0.016465,-0 -0.00553,0 -0.011126,8e-4 -0.016155,0 -0.00538,0 -0.00996,0.01 -0.013318,0.011 -0.00335,0 -0.0055,0.011 -0.00657,0.016 -0.00214,0.012 -3.3e-6,0.024 0.00354,0.035 0.00354,0.011 0.00846,0.022 0.012115,0.033 0.00365,0.011 0.00603,0.023 0.00424,0.035 -0.00243,0.016 -0.012398,0.03 -0.024654,0.04 -0.012256,0.01 -0.02677,0.018 -0.041118,0.025 -0.014348,0.01 -0.028839,0.015 -0.041012,0.025 -0.012173,0.011 -0.021987,0.025 -0.024162,0.041 -0.00162,0.012 0.00105,0.024 0.00497,0.035 0.00392,0.011 0.00909,0.022 0.01276,0.033 0.00367,0.011 0.0058,0.024 0.00341,0.035 -0.0012,0.01 -0.00354,0.011 -0.00712,0.016 -0.00358,0 -0.00843,0.01 -0.014015,0.011 -0.00518,0 -0.010849,0 -0.016382,0 -0.00553,-4e-4 -0.010979,-0 -0.016415,-0 -0.00544,-0 -0.01091,-0 -0.016453,-0 -0.00554,-2e-4 -0.011199,6e-4 -0.016224,0 -0.00535,0 -0.0098,0.01 -0.012869,0.012 -0.00307,0 -0.0048,0.011 -0.0054,0.017 -0.0012,0.012 0.00203,0.024 0.00625,0.034 0.00422,0.011 0.00947,0.022 0.012592,0.033 0.00312,0.011 0.00398,0.024 -5.739e-4,0.035 -0.00302,0.01 -0.00825,0.013 -0.014195,0.018 -0.00594,0.01 -0.012621,0.01 -0.019229,0.013 -0.00661,0 -0.013214,0.01 -0.018958,0.014 -0.00574,0.01 -0.010635,0.012 -0.013091,0.019 -0.00343,0.01 -0.00187,0.022 -2.143e-4,0.033 0.00166,0.011 0.00337,0.022 2.143e-4,0.033 -0.00226,0.01 -0.0069,0.014 -0.012451,0.02 -0.00555,0.01 -0.012013,0.01 -0.018542,0.014 -0.00653,0 -0.013179,0.01 -0.019243,0.014 -0.00606,0 -0.01157,0.011 -0.015238,0.018 -0.00528,0.01 -0.00644,0.022 -0.00536,0.033 0.00108,0.011 0.00427,0.022 0.00728,0.033 0.00301,0.011 0.00588,0.022 0.0063,0.033 4.153e-4,0.011 -0.00181,0.023 -0.00822,0.032 -0.0073,0.011 -0.019928,0.017 -0.032737,0.017 -0.012808,0 -0.025439,-0.01 -0.032737,-0.017 l 0,0.3273"
       style="fill:none;fill-rule:evenodd;stroke:#000000;stroke-width:1px;stroke-linecap:butt;stroke-linejoin:miter;stroke-opacity:1" />
    <path
       id="path3400"
       d="m 8.1186334,1048.4993 c 0.030198,0.03 0.051784,0.069 0.061595,0.1105 0.00981,0.042 0.00782,0.086 -0.00569,0.1264 -0.013507,0.04 -0.038486,0.077 -0.071276,0.1045 -0.032791,0.027 -0.073293,0.045 -0.1155732,0.051 -0.021678,0 -0.043795,0 -0.065473,0 0.017729,0.029 0.027262,0.064 0.027262,0.098 0,0.034 -0.00953,0.069 -0.027262,0.098 -0.020656,0.034 -0.051441,0.061 -0.078262,0.091 -0.01341,0.015 -0.025963,0.031 -0.035563,0.048 -0.0096,0.018 -0.016191,0.037 -0.017121,0.057 -0.00103,0.022 0.00485,0.044 0.00802,0.066 0.00159,0.011 0.0025,0.022 0.00153,0.033 -9.702e-4,0.011 -0.00389,0.022 -0.00955,0.032 -0.0079,0.013 -0.020553,0.023 -0.032864,0.032 -0.012311,0.01 -0.024909,0.019 -0.032609,0.033 -0.00552,0.01 -0.00821,0.021 -0.00898,0.032 -7.677e-4,0.011 3.305e-4,0.022 0.00201,0.033 0.00336,0.022 0.00908,0.044 0.00697,0.066 -0.0019,0.02 -0.010154,0.039 -0.021222,0.056 -0.011068,0.017 -0.024907,0.031 -0.039025,0.045 -0.014118,0.014 -0.028624,0.028 -0.041303,0.044 -0.012679,0.015 -0.023571,0.033 -0.029396,0.052 -0.0064,0.021 -0.0064,0.044 0,0.065 -0.017303,-10e-4 -0.034889,0.01 -0.047186,0.018 -0.012298,0.012 -0.019113,0.03 -0.018287,0.047 5.874e-4,0.012 0.00481,0.024 0.00967,0.035 0.00486,0.011 0.010434,0.022 0.013968,0.034 0.00353,0.012 0.00494,0.025 0.00133,0.036 -0.0018,0.01 -0.00486,0.012 -0.00914,0.016 -0.00428,0 -0.00981,0.01 -0.015829,0.01 -0.00554,0 -0.011317,7e-4 -0.016869,-4e-4 -0.00555,-0 -0.010957,-0 -0.016457,-0 -0.0055,-0 -0.011172,-0 -0.016817,-0 -0.00565,5e-4 -0.011304,0 -0.01533,0.01 -0.004,0 -0.0061,0.01 -0.00664,0.015 -5.383e-4,0.01 3.701e-4,0.011 0.00169,0.017 0.00132,0.01 0.00306,0.011 0.00422,0.016 0.00116,0.01 0.00174,0.011 7.222e-4,0.017 -0.00144,0.01 -0.00603,0.015 -0.011743,0.02 -0.00571,0.01 -0.012524,0.01 -0.019368,0.014 -0.00684,0 -0.013812,0.01 -0.019987,0.013 -0.00617,0.01 -0.011584,0.011 -0.014375,0.019 -0.00384,0.01 -0.00239,0.022 -6.728e-4,0.032 0.00172,0.011 0.00365,0.022 6.728e-4,0.033 -0.00213,0.01 -0.00667,0.014 -0.012155,0.02 -0.00549,0.01 -0.011913,0.01 -0.018432,0.014 -0.00652,0 -0.013181,0.01 -0.019299,0.013 -0.00612,0 -0.011724,0.011 -0.015587,0.017 -0.00553,0.01 -0.00719,0.021 -0.0066,0.032 5.862e-4,0.011 0.0033,0.022 0.00604,0.033 0.00274,0.011 0.00555,0.022 0.00633,0.033 7.791e-4,0.011 -5.785e-4,0.023 -0.00576,0.033 -0.00361,0.01 -0.00895,0.013 -0.014858,0.018 -0.00591,0 -0.012407,0.01 -0.01883,0.014 -0.00642,0 -0.012814,0.01 -0.01844,0.014 -0.00563,0.01 -0.010497,0.012 -0.013345,0.019 -0.00399,0.01 -0.00379,0.022 -0.00264,0.032 0.00115,0.011 0.00318,0.022 0.00264,0.033 -8.373e-4,0.017 -0.00814,0.034 -0.020088,0.045 -0.011951,0.012 -0.028443,0.019 -0.045385,0.021"
       style="fill:none;fill-rule:evenodd;stroke:#000000;stroke-width:1px;stroke-linecap:butt;stroke-linejoin:miter;stroke-opacity:1" />
    <path
       id="path3404"
       d="m 13.487407,1041.2973 -0.06547,0.2619 c -0.01659,0 -0.03243,0.01 -0.0442,0.022 -0.01177,0.012 -0.01939,0.028 -0.02127,0.044 -0.0012,0.011 -9.1e-5,0.022 7.81e-4,0.033 8.73e-4,0.011 0.0015,0.022 -7.81e-4,0.033 -0.0033,0.015 -0.01251,0.029 -0.02386,0.04 -0.01135,0.011 -0.02482,0.02 -0.03836,0.028 -0.01354,0.01 -0.02732,0.016 -0.03961,0.026 -0.01229,0.01 -0.02314,0.022 -0.02911,0.037 -0.0064,0.016 -0.0068,0.033 -0.0044,0.05 0.0024,0.017 0.0075,0.033 0.01199,0.049 0.0045,0.016 0.0083,0.033 0.0081,0.05 -2.1e-4,0.017 -0.0048,0.034 -0.01568,0.047 -0.01023,0.012 -0.02496,0.02 -0.03808,0.029 -0.0066,0 -0.01284,0.01 -0.01785,0.016 -0.005,0.01 -0.0087,0.014 -0.0095,0.022 -6.03e-4,0.01 2.18e-4,0.011 0.0015,0.017 0.0013,0.01 0.003,0.011 0.0042,0.016 0.0012,0.01 0.002,0.011 0.0013,0.017 -6.95e-4,0.01 -0.003,0.011 -0.007,0.015 -0.0041,0 -0.0097,0.01 -0.01537,0.01 -0.0056,5e-4 -0.0113,-5e-4 -0.0168,-0 -0.0055,-0 -0.01091,-0 -0.01645,-0 -0.0055,-0 -0.0113,-0 -0.01685,-5e-4 -0.0061,0 -0.01171,0 -0.01613,0.01 -0.0044,0 -0.0077,0.01 -0.0097,0.016 -0.004,0.012 -0.003,0.025 3.37e-4,0.037 0.0033,0.012 0.0088,0.023 0.01396,0.034 0.0051,0.011 0.0099,0.023 0.0115,0.035 0.0027,0.02 -0.0033,0.041 -0.01358,0.058 -0.01025,0.017 -0.02454,0.032 -0.0395,0.046 -0.01495,0.014 -0.03072,0.027 -0.04476,0.041 -0.01403,0.015 -0.02642,0.031 -0.03311,0.051 -0.0074,0.021 -0.0074,0.045 0,0.066 -0.01769,-0 -0.03664,0 -0.04937,0.016 -0.01273,0.013 -0.01891,0.032 -0.0161,0.049 0.0018,0.011 0.0071,0.022 0.0092,0.034 0.0011,0.01 0.0013,0.012 -2.8e-5,0.017 -0.0014,0.01 -0.0045,0.011 -0.0092,0.014 -0.0046,0 -0.01036,0 -0.01597,0 -0.0056,-10e-5 -0.01113,-0 -0.01656,-0 -0.0054,-0 -0.01085,-0 -0.01643,-0 -0.0056,-6e-4 -0.01141,-3e-4 -0.01651,0 -0.0055,0 -0.0099,0.01 -0.01246,0.013 -0.0026,0.01 -0.0034,0.012 -0.0029,0.018 9.48e-4,0.012 0.0068,0.023 0.01277,0.034 0.006,0.011 0.01224,0.022 0.01418,0.034 9.68e-4,0.01 7.93e-4,0.012 -0.0011,0.018 -0.0019,0.01 -0.0055,0.011 -0.01053,0.015 -0.0046,0 -0.01023,0 -0.01581,0 -0.0056,3e-4 -0.01114,-5e-4 -0.01661,-0 -0.0055,-0 -0.01089,-0 -0.01641,-0 -0.0055,-8e-4 -0.01119,-0 -0.01665,10e-5 -0.009,0 -0.01703,0.01 -0.0224,0.015 -0.0054,0.01 -0.0082,0.017 -0.0088,0.026 -0.0012,0.018 0.006,0.036 0.01458,0.053 0.0085,0.016 0.01857,0.032 0.02365,0.05 0.0025,0.01 0.0038,0.018 0.0029,0.027 -9.44e-4,0.01 -0.0042,0.018 -0.0099,0.025 -0.0078,0.01 -0.0202,0.016 -0.03274,0.016 -0.01253,0 -0.02494,-0.01 -0.03274,-0.016"
       style="fill:none;fill-rule:evenodd;stroke:#000000;stroke-width:1px;stroke-linecap:butt;stroke-linejoin:miter;stroke-opacity:1" />
    <path
       id="path3408"
       d="m 12.243423,1045.0947 c -0.08843,0.083 -0.137685,0.2062 -0.130946,0.3274 0.0012,0.022 0.0041,0.044 0,0.065 -0.0038,0.02 -0.01332,0.038 -0.02518,0.054 -0.01187,0.016 -0.02604,0.03 -0.04017,0.044 -0.01413,0.014 -0.02832,0.028 -0.04022,0.044 -0.0119,0.016 -0.02152,0.034 -0.02537,0.054 -0.0042,0.021 -0.0014,0.044 0.0011,0.065 0.0025,0.022 0.0046,0.044 -0.0011,0.065 -0.0042,0.016 -0.01253,0.03 -0.02397,0.041 -0.01143,0.011 -0.02591,0.02 -0.0415,0.024 l -0.06547,0.1309 c 0.0099,0.021 0.0099,0.046 0,0.066 -0.0069,0.014 -0.01807,0.026 -0.03048,0.036 -0.01241,0.01 -0.02612,0.018 -0.03953,0.026 -0.01341,0.01 -0.02666,0.017 -0.03776,0.028 -0.0111,0.011 -0.02002,0.025 -0.02318,0.041 -0.0037,0.018 7.56e-4,0.037 0.0077,0.054 0.0069,0.017 0.01628,0.033 0.02301,0.051 0.0067,0.017 0.01075,0.036 0.0064,0.054 -0.0022,0.01 -0.0065,0.018 -0.01289,0.024 -0.0064,0.01 -0.015,0.011 -0.0242,0.013 -0.0111,0 -0.02216,-0 -0.03315,-0 -0.0055,-0 -0.01111,-0 -0.01669,-0 -0.0056,4e-4 -0.01116,0 -0.01563,0.01 -0.0047,0 -0.0079,0.01 -0.0096,0.014 -0.0017,0.01 -0.0018,0.012 -0.0011,0.017 0.0015,0.012 0.0067,0.022 0.01063,0.033 0.0097,0.027 0.01189,0.058 7.14e-4,0.084 -0.0056,0.013 -0.01449,0.025 -0.02604,0.034 -0.01156,0.01 -0.0258,0.014 -0.04014,0.013 -0.01116,-10e-5 -0.02203,-0 -0.03308,-0 -0.0055,-8e-4 -0.01114,-0 -0.01668,-5e-4 -0.0055,6e-4 -0.01103,0 -0.01571,0.01 -0.0049,0 -0.0087,0.01 -0.01137,0.013 -0.0026,0.01 -0.004,0.011 -0.0045,0.017 -8.44e-4,0.012 0.0022,0.023 0.006,0.034 0.0038,0.011 0.0085,0.022 0.01112,0.033 0.0026,0.011 0.0031,0.024 -0.0013,0.034 -0.003,0.01 -0.008,0.013 -0.01382,0.019 -0.0058,0.01 -0.0123,0.01 -0.01881,0.014 -0.0065,0 -0.01304,0.01 -0.01885,0.014 -0.0058,0.01 -0.01093,0.011 -0.01399,0.018 -0.0043,0.01 -0.0043,0.021 -0.0032,0.032 0.0011,0.011 0.0033,0.022 0.0032,0.033 -2.85e-4,0.02 -0.0086,0.04 -0.02031,0.056 -0.01168,0.016 -0.02662,0.03 -0.04166,0.044 -0.01504,0.013 -0.03038,0.027 -0.04313,0.042 -0.01275,0.016 -0.0229,0.034 -0.02585,0.054 -0.0016,0.011 -0.0011,0.022 -6.94e-4,0.033 4.3e-4,0.011 6.94e-4,0.022 6.94e-4,0.033 l 0,0.065"
       style="fill:none;fill-rule:evenodd;stroke:#000000;stroke-width:1px;stroke-linecap:butt;stroke-linejoin:miter;stroke-opacity:1" />
    <path
       id="path3412"
       d="m 11.064912,1048.3684 c 0.03533,0.034 0.05609,0.082 0.05609,0.1309 0,0.049 -0.02076,0.097 -0.05609,0.1309 -0.0112,0.011 -0.02372,0.02 -0.03543,0.03 -0.01171,0.01 -0.02276,0.021 -0.03004,0.035 -0.01068,0.02 -0.01245,0.044 -0.0095,0.066 0.0029,0.023 0.01022,0.044 0.01687,0.066 0.0067,0.022 0.01274,0.044 0.0131,0.067 3.61e-4,0.023 -0.0055,0.046 -0.02044,0.063 -0.01036,0.012 -0.02431,0.02 -0.03697,0.029 -0.0063,0 -0.01241,0.01 -0.01749,0.016 -0.0051,0.01 -0.0091,0.013 -0.01102,0.021 -0.0026,0.011 -9.39e-4,0.022 5.53e-4,0.032 0.0015,0.011 0.0028,0.022 -5.53e-4,0.033 -0.0024,0.01 -0.007,0.014 -0.01251,0.02 -0.0055,0.01 -0.01189,0.01 -0.01836,0.014 -0.0065,0 -0.01306,0.01 -0.01912,0.014 -0.0061,0 -0.01161,0.011 -0.01548,0.017 -0.0055,0.01 -0.0074,0.021 -0.007,0.032 3.65e-4,0.011 0.0028,0.022 0.0054,0.033 0.0026,0.011 0.0053,0.022 0.0062,0.033 9.17e-4,0.011 -5.5e-5,0.023 -0.0046,0.033 -0.0063,0.014 -0.01885,0.024 -0.03131,0.034 -0.01246,0.01 -0.02561,0.018 -0.03416,0.031 -0.0093,0.014 -0.01225,0.032 -0.01131,0.049 9.36e-4,0.017 0.0055,0.033 0.01009,0.05 0.0046,0.016 0.0094,0.033 0.01072,0.049 0.0014,0.017 -9.06e-4,0.034 -0.0095,0.049 -0.0079,0.013 -0.02038,0.023 -0.03263,0.033 -0.01225,0.01 -0.02481,0.019 -0.03284,0.032 -0.0059,0.01 -0.0091,0.021 -0.0091,0.033 0,0.011 0.0032,0.023 0.0091,0.033 -0.01666,0 -0.03263,0.01 -0.04444,0.021 -0.0118,0.012 -0.01936,0.028 -0.02103,0.045 -0.0018,0.018 0.0032,0.037 0.01007,0.054 0.0068,0.017 0.01553,0.033 0.02151,0.051 0.006,0.017 0.0092,0.036 0.0046,0.054 -0.0023,0.01 -0.0065,0.017 -0.01274,0.024 -0.0062,0.01 -0.01443,0.012 -0.02343,0.014 -0.01081,0 -0.02197,-1e-4 -0.03287,-0 -0.0055,-8e-4 -0.01095,-0 -0.01647,-0 -0.0055,0 -0.01108,9e-4 -0.01612,0 -0.0088,0 -0.01553,0.012 -0.01888,0.021 -0.0033,0.01 -0.0035,0.019 -0.0015,0.029 0.004,0.019 0.01593,0.035 0.02704,0.051 0.0056,0.01 0.01098,0.016 0.01525,0.025 0.0043,0.01 0.0074,0.018 0.008,0.028 6.25e-4,0.01 -0.0013,0.02 -0.0065,0.028 -0.0052,0.01 -0.01376,0.014 -0.02335,0.016 -0.0057,8e-4 -0.0115,-10e-5 -0.01707,-0 -0.0056,-0 -0.01098,-0 -0.01654,-0 -0.0056,-0 -0.01137,-0 -0.01707,-0 -0.0057,8e-4 -0.0113,0 -0.01479,0.01 -0.0035,0 -0.0045,0.011 -0.0041,0.016 4.53e-4,0.01 0.0023,0.011 0.0041,0.017 0.0018,0.01 0.0037,0.011 0.0041,0.017 4.48e-4,0.01 -6.22e-4,0.012 -0.0041,0.016 -0.0035,0 -0.0091,0.01 -0.01481,0.01 -0.0057,7e-4 -0.0115,-2e-4 -0.01706,-0 -0.0056,-0 -0.01098,-0 -0.01654,-0 -0.0056,-0 -0.01137,-0 -0.01706,-0 -0.0096,0 -0.01822,0.01 -0.02332,0.016 -0.0051,0.01 -0.0069,0.018 -0.0061,0.028 8.06e-4,0.01 0.0041,0.019 0.0085,0.028 0.0044,0.01 0.01005,0.017 0.01573,0.024 0.01137,0.016 0.0235,0.032 0.02724,0.051 0.0019,0.01 0.0015,0.02 -0.0022,0.029 -0.0037,0.01 -0.0108,0.017 -0.0199,0.02 -0.0052,0 -0.01079,0 -0.01631,0 -0.0055,-3e-4 -0.01098,-0 -0.01642,-0 -0.0054,-10e-4 -0.01089,-0 -0.01641,-0 -0.0055,-3e-4 -0.01114,2e-4 -0.01633,0 -0.009,0 -0.01614,0.011 -0.02006,0.019 -0.0039,0.01 -0.0048,0.019 -0.0034,0.028 0.0028,0.019 0.01379,0.035 0.02446,0.051 0.01066,0.016 0.02154,0.033 0.02389,0.051 0.0012,0.01 6.4e-5,0.019 -0.0041,0.028 -0.0042,0.01 -0.01166,0.016 -0.02076,0.019 -0.0053,0 -0.01094,0 -0.01646,0 -0.0055,-5e-4 -0.01096,-0 -0.0164,-0 -0.0054,-0 -0.01094,-0 -0.01648,-0 -0.0055,-10e-5 -0.01118,8e-4 -0.01613,0 -0.0053,0 -0.0096,0.01 -0.01253,0.012 -0.0029,0.01 -0.0045,0.011 -0.005,0.017 -9.59e-4,0.012 0.0024,0.023 0.0067,0.034 0.0043,0.011 0.0095,0.022 0.01242,0.033 0.0029,0.011 0.0034,0.024 -0.0016,0.035 -0.0029,0.01 -0.0076,0.011 -0.01335,0.015 -0.0058,0 -0.01257,0.01 -0.01939,0.01 -0.0068,0 -0.01363,-0 -0.01939,-0.01 -0.0058,-0 -0.01045,-0.01 -0.01335,-0.015"
       style="fill:none;fill-rule:evenodd;stroke:#000000;stroke-width:1px;stroke-linecap:butt;stroke-linejoin:miter;stroke-opacity:1" />
  </g>
</svg>
